<?xml version="1.0" encoding="UTF-8" standalone="no"?>
<!-- Created with Inkscape (http://www.inkscape.org/) -->

<svg
   width="224.41194mm"
   height="224.41194mm"
   viewBox="0 0 224.41195 224.41194"
   version="1.1"
   id="svg980"
   inkscape:version="1.1.1 (3bf5ae0d25, 2021-09-20)"
   sodipodi:docname="metabefor-hex-sticker.svg"
   inkscape:export-filename="B:\Data\R\metabefor\img\metabefor-hex-sticker.png"
   inkscape:export-xdpi="56.59"
   inkscape:export-ydpi="56.59"
   xmlns:inkscape="http://www.inkscape.org/namespaces/inkscape"
   xmlns:sodipodi="http://sodipodi.sourceforge.net/DTD/sodipodi-0.dtd"
   xmlns="http://www.w3.org/2000/svg"
   xmlns:svg="http://www.w3.org/2000/svg">
  <sodipodi:namedview
     id="namedview982"
     pagecolor="#ffffff"
     bordercolor="#666666"
     borderopacity="1.0"
     inkscape:pageshadow="2"
     inkscape:pageopacity="0.0"
     inkscape:pagecheckerboard="0"
     inkscape:document-units="mm"
     showgrid="false"
     inkscape:snap-global="true"
     inkscape:snap-bbox="true"
     inkscape:snap-midpoints="true"
     inkscape:bbox-paths="true"
     inkscape:snap-bbox-edge-midpoints="true"
     inkscape:snap-bbox-midpoints="true"
     inkscape:object-paths="true"
     inkscape:snap-center="true"
     inkscape:snap-object-midpoints="true"
     inkscape:bbox-nodes="true"
     inkscape:snap-intersection-paths="true"
     inkscape:snap-smooth-nodes="true"
     inkscape:zoom="0.70710678"
     inkscape:cx="470.22601"
     inkscape:cy="468.8118"
     inkscape:window-width="1920"
     inkscape:window-height="1013"
     inkscape:window-x="-9"
     inkscape:window-y="-9"
     inkscape:window-maximized="1"
     inkscape:current-layer="layer7"
     fit-margin-top="0"
     fit-margin-left="0"
     fit-margin-right="0"
     fit-margin-bottom="0" />
  <defs
     id="defs977" />
  <g
     inkscape:label="Background"
     inkscape:groupmode="layer"
     id="layer1"
     style="display:inline"
     transform="translate(24.250887,-5.9407268)"
     sodipodi:insensitive="true">
    <circle
       style="color:#000000;overflow:visible;opacity:1;fill:#e6e6e6;stroke:#552200;stroke-width:0.0761086;stroke-linecap:round;stroke-linejoin:round;stop-color:#000000"
       id="path1385"
       cx="87.698158"
       cy="135.79799"
       r="75.774696" />
    <rect
       style="color:#000000;overflow:visible;fill:#ffffff;stroke-width:1.21104;stroke-linecap:square;stop-color:#000000"
       id="rect1166"
       width="224.41194"
       height="224.41194"
       x="-24.250887"
       y="5.9407268" />
  </g>
  <g
     inkscape:groupmode="layer"
     id="layer11"
     inkscape:label="Hex background"
     sodipodi:insensitive="true"
     transform="translate(14.89742,-0.15269366)">
    <path
       inkscape:connector-curvature="0"
       id="path4879-4"
       d="M 87.953342,9.6826099 -5.9625388,63.905223 -5.9805759,172.37404 87.958893,226.6108 181.8889,172.36304 181.8909,63.91779 Z"
       style="color:#000000;clip-rule:nonzero;display:inline;overflow:visible;visibility:visible;isolation:auto;mix-blend-mode:normal;color-interpolation:sRGB;color-interpolation-filters:linearRGB;solid-color:#000000;solid-opacity:1;fill:#ffffff;fill-opacity:1;fill-rule:nonzero;stroke:none;stroke-width:3.04287;stroke-linecap:square;stroke-linejoin:miter;stroke-miterlimit:4;stroke-dasharray:none;stroke-dashoffset:0;stroke-opacity:1;color-rendering:auto;image-rendering:auto;shape-rendering:auto;text-rendering:auto;enable-background:accumulate"
       transform="translate(9.3534672,-5.7880332)" />
  </g>
  <g
     inkscape:groupmode="layer"
     id="layer6"
     inkscape:label="Ticks"
     style="display:inline"
     transform="translate(24.250887,-5.9407268)"
     sodipodi:insensitive="true">
    <path
       sodipodi:type="star"
       style="color:#000000;display:inline;overflow:visible;opacity:1;fill:#000000;fill-opacity:1;stroke:#000000;stroke-width:2.09622;stroke-linecap:butt;stroke-linejoin:round;stroke-miterlimit:2;stroke-dasharray:none;stroke-opacity:1;stop-color:#000000"
       id="path10535"
       inkscape:flatsided="false"
       sodipodi:sides="50"
       sodipodi:cx="185.78558"
       sodipodi:cy="154.56113"
       sodipodi:r1="11.265177"
       sodipodi:r2="225.30354"
       sodipodi:arg1="0.78539816"
       sodipodi:arg2="0.84823001"
       inkscape:rounded="0"
       inkscape:randomized="0"
       d="M 193.75127,162.52681 334.78149,323.56381 192.69009,163.46236 312.42496,340.90531 191.52003,164.25754 288.07125,355.30805 190.25952,164.89979 262.10444,366.5449 188.92847,165.379 234.93403,374.43863 187.54785,165.68761 206.98852,378.86476 186.13943,165.82074 178.70863,379.7535 184.72544,165.77631 150.54035,377.09081 183.32816,165.555 122.9279,370.9187 181.96964,165.16031 96.306758,361.3345 180.6713,164.59847 71.09675,348.48936 179.45361,163.87834 47.695454,332.58585 178.33579,163.01126 26.471921,313.87479 177.33545,162.01092 7.7608605,292.65126 176.46837,160.8931 -8.1426441,269.24996 175.74824,159.67541 -20.987785,244.03995 175.1864,158.37707 -30.571986,217.41881 174.79171,157.01855 -36.744099,189.80637 174.5704,155.62127 -39.406786,161.63808 174.52597,154.20728 -38.518055,133.35819 174.6591,152.79886 -34.091921,105.41268 174.96771,151.41824 -26.198188,78.242274 175.44692,150.08719 -14.961344,52.27546 176.08917,148.82669 -0.55860113,27.921751 176.88435,147.65662 16.782901,5.5652215 177.8199,146.59544 36.789676,-14.441554 178.88108,145.65989 59.146206,-31.783056 180.05114,144.86472 83.499914,-46.185799 181.31164,144.22246 109.46673,-57.422644 182.6427,143.74325 136.63714,-65.316377 184.02332,143.43464 164.58265,-69.742511 185.43174,143.30151 192.86254,-70.631243 186.84573,143.34595 221.03082,-67.968556 188.24301,143.56725 248.64327,-61.796443 189.60153,143.96194 275.26441,-52.212243 190.89987,144.52378 300.47442,-39.367102 192.11755,145.24392 323.87571,-23.463598 193.23538,146.11099 345.09925,-4.7525375 194.23572,147.11133 363.81031,16.470995 195.10279,148.22916 379.71381,39.872291 195.82293,149.44684 392.55895,65.082298 196.38477,150.74518 402.14315,91.703441 196.77946,152.1037 l 211.53581,-32.78781 -211.3145,34.18509 213.97718,-6.01681 -213.93275,7.4308 213.04402,20.84909 -213.17715,-19.44067 208.75102,47.38618 -209.05963,-46.00556 201.16589,73.17597 -201.6451,-71.84491 190.40826,97.81172 L 195.48199,160.29557 372.12977,281.2005 194.68682,161.46563 354.78827,303.55703 Z"
       transform="matrix(0.36109494,0,0,0.36109494,20.868859,79.986672)" />
  </g>
  <g
     inkscape:groupmode="layer"
     id="layer7"
     inkscape:label="Tick-cover"
     style="display:inline"
     transform="translate(24.250887,-5.9407268)"
     sodipodi:insensitive="true">
    <rect
       style="color:#000000;overflow:visible;opacity:1;fill:#ffffff;fill-opacity:1;stroke:none;stroke-width:1.34766;stroke-linecap:square;stroke-linejoin:miter;stroke-miterlimit:4;stroke-dasharray:none;stroke-opacity:1;stop-color:#000000"
       id="rect11182"
       width="164.95042"
       height="80.59716"
       x="5.4798779"
       y="135.79791" />
    <ellipse
       style="color:#000000;display:inline;overflow:visible;opacity:1;fill:#ffffff;stroke:none;stroke-width:0.0816554;stroke-linecap:round;stroke-linejoin:round;stop-color:#000000"
       id="circle1093"
       cx="87.698158"
       cy="142.10097"
       rx="78.206848"
       ry="84.509827" />
  </g>
  <g
     inkscape:groupmode="layer"
     id="layer3"
     inkscape:label="Spectrum"
     style="display:inline"
     transform="translate(24.250887,-5.9407268)"
     sodipodi:insensitive="true">
    <path
       style="color:#000000;display:inline;overflow:visible;opacity:1;fill:#2d1160;fill-opacity:1;stroke:none;stroke-width:0.0761086;stroke-linecap:round;stroke-linejoin:round;stop-color:#000000"
       id="circle8242"
       sodipodi:type="arc"
       sodipodi:cx="-87.698158"
       sodipodi:cy="-135.79799"
       sodipodi:rx="75.774696"
       sodipodi:ry="75.774696"
       sodipodi:start="0"
       sodipodi:end="0.52359878"
       sodipodi:arc-type="slice"
       d="m -11.923462,-135.79799 a 75.774696,75.774696 0 0 1 -10.151884,37.88735 l -65.622812,-37.88735 z"
       transform="scale(-1)" />
    <path
       style="color:#000000;display:inline;overflow:visible;opacity:1;fill:#721f81;fill-opacity:1;stroke:none;stroke-width:0.0761086;stroke-linecap:round;stroke-linejoin:round;stop-color:#000000"
       id="path8893"
       sodipodi:type="arc"
       sodipodi:cx="-143.84782"
       sodipodi:cy="-73.755432"
       sodipodi:rx="75.774696"
       sodipodi:ry="75.774696"
       sodipodi:start="0"
       sodipodi:end="0.52359878"
       sodipodi:arc-type="slice"
       d="m -68.073128,-73.755432 a 75.774696,75.774696 0 0 1 -10.151884,37.887348 l -65.622808,-37.887348 z"
       transform="rotate(-150)" />
    <path
       style="color:#000000;display:inline;overflow:visible;opacity:1;fill:#b63679;fill-opacity:1;stroke:none;stroke-width:0.0761086;stroke-linecap:round;stroke-linejoin:round;stop-color:#000000"
       id="path8935"
       sodipodi:type="arc"
       sodipodi:cx="-161.45358"
       sodipodi:cy="8.0498343"
       sodipodi:rx="75.774696"
       sodipodi:ry="75.774696"
       sodipodi:start="0"
       sodipodi:end="0.52359878"
       sodipodi:arc-type="slice"
       d="M -85.678886,8.0498343 A 75.774696,75.774696 0 0 1 -95.830771,45.937183 L -161.45358,8.0498343 Z"
       transform="rotate(-120)" />
    <path
       style="color:#000000;display:inline;overflow:visible;opacity:1;fill:#f1605d;fill-opacity:1;stroke:none;stroke-width:0.0761086;stroke-linecap:round;stroke-linejoin:round;stop-color:#000000"
       id="path8937"
       sodipodi:type="arc"
       sodipodi:cx="-135.79799"
       sodipodi:cy="87.698151"
       sodipodi:rx="75.774696"
       sodipodi:ry="75.774696"
       sodipodi:start="0"
       sodipodi:end="0.52359878"
       sodipodi:arc-type="slice"
       d="M -60.023293,87.698151 A 75.774696,75.774696 0 0 1 -70.175177,125.5855 L -135.79799,87.698151 Z"
       transform="rotate(-90)" />
    <path
       style="color:#000000;display:inline;overflow:visible;opacity:1;fill:#feaf77;fill-opacity:1;stroke:none;stroke-width:0.0761086;stroke-linecap:round;stroke-linejoin:round;stop-color:#000000"
       id="path8939"
       sodipodi:type="arc"
       sodipodi:cx="-73.755432"
       sodipodi:cy="143.84782"
       sodipodi:rx="75.774696"
       sodipodi:ry="75.774696"
       sodipodi:start="0"
       sodipodi:end="0.52359878"
       sodipodi:arc-type="slice"
       d="M 2.0192642,143.84782 A 75.774696,75.774696 0 0 1 -8.1326203,181.73517 L -73.755432,143.84782 Z"
       transform="rotate(-60)" />
    <path
       style="color:#000000;display:inline;overflow:visible;opacity:1;fill:#fcfdbf;fill-opacity:1;stroke:none;stroke-width:0.0761086;stroke-linecap:round;stroke-linejoin:round;stop-color:#000000"
       id="path8941"
       sodipodi:type="arc"
       sodipodi:cx="8.0498343"
       sodipodi:cy="161.45358"
       sodipodi:rx="75.774696"
       sodipodi:ry="75.774696"
       sodipodi:start="0"
       sodipodi:end="0.52359878"
       sodipodi:arc-type="slice"
       d="M 83.824531,161.45358 A 75.774696,75.774696 0 0 1 73.672646,199.34093 L 8.0498343,161.45358 Z"
       transform="rotate(-30)" />
  </g>
  <g
     inkscape:groupmode="layer"
     id="layer8"
     inkscape:label="Lighter Spectrum"
     style="display:none"
     transform="translate(24.250887,-5.9407268)"
     sodipodi:insensitive="true">
    <path
       style="color:#000000;display:inline;overflow:visible;opacity:1;fill:#975dff;fill-opacity:1;stroke:none;stroke-width:0.0761086;stroke-linecap:round;stroke-linejoin:round;stop-color:#000000"
       id="path913"
       sodipodi:type="arc"
       sodipodi:cx="-87.698158"
       sodipodi:cy="-135.79799"
       sodipodi:rx="75.774696"
       sodipodi:ry="75.774696"
       sodipodi:start="0"
       sodipodi:end="0.52359878"
       sodipodi:arc-type="slice"
       d="m -11.923462,-135.79799 a 75.774696,75.774696 0 0 1 -10.151884,37.88735 l -65.622812,-37.88735 z"
       transform="scale(-1)" />
    <path
       style="color:#000000;display:inline;overflow:visible;opacity:1;fill:#ed87ff;fill-opacity:1;stroke:none;stroke-width:0.0761086;stroke-linecap:round;stroke-linejoin:round;stop-color:#000000"
       id="path915"
       sodipodi:type="arc"
       sodipodi:cx="-143.84782"
       sodipodi:cy="-73.755432"
       sodipodi:rx="75.774696"
       sodipodi:ry="75.774696"
       sodipodi:start="0"
       sodipodi:end="0.52359878"
       sodipodi:arc-type="slice"
       d="m -68.073128,-73.755432 a 75.774696,75.774696 0 0 1 -10.151884,37.887348 l -65.622808,-37.887348 z"
       transform="rotate(-150)" />
    <path
       style="color:#000000;display:inline;overflow:visible;opacity:1;fill:#ff74bd;fill-opacity:1;stroke:none;stroke-width:0.0761086;stroke-linecap:round;stroke-linejoin:round;stop-color:#000000"
       id="path917"
       sodipodi:type="arc"
       sodipodi:cx="-161.45358"
       sodipodi:cy="8.0498343"
       sodipodi:rx="75.774696"
       sodipodi:ry="75.774696"
       sodipodi:start="0"
       sodipodi:end="0.52359878"
       sodipodi:arc-type="slice"
       d="M -85.678886,8.0498343 A 75.774696,75.774696 0 0 1 -95.830771,45.937183 L -161.45358,8.0498343 Z"
       transform="rotate(-120)" />
    <path
       style="color:#000000;display:inline;overflow:visible;opacity:1;fill:#ff908d;fill-opacity:1;stroke:none;stroke-width:0.0761086;stroke-linecap:round;stroke-linejoin:round;stop-color:#000000"
       id="path919"
       sodipodi:type="arc"
       sodipodi:cx="-135.79799"
       sodipodi:cy="87.698151"
       sodipodi:rx="75.774696"
       sodipodi:ry="75.774696"
       sodipodi:start="0"
       sodipodi:end="0.52359878"
       sodipodi:arc-type="slice"
       d="M -60.023293,87.698151 A 75.774696,75.774696 0 0 1 -70.175177,125.5855 L -135.79799,87.698151 Z"
       transform="rotate(-90)" />
    <path
       style="color:#000000;display:inline;overflow:visible;opacity:1;fill:#ffae74;fill-opacity:1;stroke:none;stroke-width:0.0761086;stroke-linecap:round;stroke-linejoin:round;stop-color:#000000"
       id="path921"
       sodipodi:type="arc"
       sodipodi:cx="-73.755432"
       sodipodi:cy="143.84782"
       sodipodi:rx="75.774696"
       sodipodi:ry="75.774696"
       sodipodi:start="0"
       sodipodi:end="0.52359878"
       sodipodi:arc-type="slice"
       d="M 2.0192642,143.84782 A 75.774696,75.774696 0 0 1 -8.1326203,181.73517 L -73.755432,143.84782 Z"
       transform="rotate(-60)" />
    <path
       style="color:#000000;display:inline;overflow:visible;opacity:1;fill:#fcff49;fill-opacity:1;stroke:none;stroke-width:0.0761086;stroke-linecap:round;stroke-linejoin:round;stop-color:#000000"
       id="path923"
       sodipodi:type="arc"
       sodipodi:cx="8.0498343"
       sodipodi:cy="161.45358"
       sodipodi:rx="75.774696"
       sodipodi:ry="75.774696"
       sodipodi:start="0"
       sodipodi:end="0.52359878"
       sodipodi:arc-type="slice"
       d="M 83.824531,161.45358 A 75.774696,75.774696 0 0 1 73.672646,199.34093 L 8.0498343,161.45358 Z"
       transform="rotate(-30)" />
  </g>
  <g
     inkscape:groupmode="layer"
     id="layer2"
     inkscape:label="Book pages"
     style="display:inline"
     transform="translate(24.250887,-5.9407268)"
     sodipodi:insensitive="true">
    <path
       id="path1919"
       style="color:#000000;fill:#666666;fill-rule:evenodd;stroke:#f2f2f2;stroke-width:0.5;stroke-miterlimit:4;stroke-dasharray:none"
       d="m 161.85156,119.1582 c -6.60272,0.0782 -13.15724,1.17225 -19.51305,2.92484 -8.6869,2.41267 -17.28939,5.14685 -26.07453,7.19759 -9.63712,2.32097 -19.410345,4.11831 -29.205386,5.63929 0.104747,0.6784 0.208625,1.35693 0.314453,2.03516 14.290823,-2.19693 28.492953,-5.0725 42.383693,-9.11053 8.24762,-2.30613 16.37967,-5.15714 24.8956,-6.14728 2.53306,-0.30322 5.18282,-0.44368 7.77149,-0.4961 -0.0132,-0.68618 -0.0243,-1.3724 -0.0371,-2.05859 -0.17839,0.005 -0.35677,0.0104 -0.53516,0.0156 z" />
    <path
       id="path2099"
       style="color:#000000;fill:#666666;fill-rule:evenodd;stroke:#f2f2f2;stroke-width:0.5;stroke-miterlimit:4;stroke-dasharray:none"
       d="m 99.203125,60.78125 c -3.303102,9.618899 -4.253623,19.833393 -4.695781,29.935953 -0.468938,10.015427 -0.768333,20.111877 -2.946947,29.886107 -1.149806,5.25693 -2.820733,10.39823 -4.972506,15.33028 0.629858,0.27295 1.259999,0.54524 1.890625,0.81641 3.750635,-8.51604 5.930372,-17.66102 6.879036,-26.90229 1.360746,-12.335771 0.80566,-24.806423 2.93737,-37.060601 0.688734,-3.984465 1.696982,-7.999376 3.025388,-11.853515 -0.65055,-0.21891 -1.30031,-0.440201 -1.951169,-0.658203 -0.05534,0.168619 -0.110677,0.337239 -0.166016,0.505859 z" />
    <path
       id="path2101"
       style="color:#000000;fill:#666666;fill-rule:evenodd;stroke:#f2f2f2;stroke-width:0.5;stroke-miterlimit:4;stroke-dasharray:none"
       d="m 121.01367,67.59375 c -6.44208,8.891351 -11.09909,18.915645 -15.10557,29.095177 -4.47411,11.299103 -8.541367,22.901903 -15.194656,33.158783 -1.281007,1.99498 -2.664885,3.92165 -4.109928,5.80073 0.54319,0.41852 1.087236,0.83594 1.630859,1.2539 6.3293,-8.07235 10.855608,-17.37148 14.656965,-26.85199 4.50902,-11.215099 8.48474,-22.731883 14.60452,-33.21418 1.67965,-2.920504 3.52945,-5.740334 5.49633,-8.474842 -0.55623,-0.40096 -1.11348,-0.800513 -1.66992,-1.201172 -0.10287,0.144531 -0.20573,0.289063 -0.3086,0.433594 z" />
    <path
       id="path2103"
       style="color:#000000;fill:#666666;fill-rule:evenodd;stroke:#f2f2f2;stroke-width:0.5;stroke-miterlimit:4;stroke-dasharray:none"
       d="m 139.03711,79.726562 c -6.87626,4.256168 -12.57686,10.174137 -17.29625,16.694261 -5.88956,8.043227 -10.83482,16.759137 -17.46162,24.222797 -4.691685,5.35642 -10.158284,10.01717 -16.154066,13.75903 -0.337395,0.36126 -1.384712,0.55438 -1.266948,1.02385 0.322903,0.52785 0.643591,1.05706 0.965993,1.58522 7.494354,-4.4772 14.180351,-10.27394 19.714841,-17.02149 6.84284,-8.1841 11.92647,-17.65205 18.62845,-25.942263 4.01859,-4.996692 8.8871,-9.486621 14.40866,-12.866326 -0.36297,-0.581573 -0.72556,-1.163386 -1.08984,-1.744141 -0.14974,0.09635 -0.29948,0.192708 -0.44922,0.289062 z" />
    <path
       id="path2105"
       style="color:#000000;fill:#666666;fill-rule:evenodd;stroke:#f2f2f2;stroke-width:0.5;stroke-miterlimit:4;stroke-dasharray:none"
       d="m 150.99414,93.589844 c -6.05397,1.723989 -11.94453,4.348207 -16.78975,8.428306 -4.629,3.83671 -8.63661,8.35729 -13.24424,12.22293 -10.19496,8.7375 -22.058222,15.182 -34.139838,20.91126 0.292053,0.62088 0.586727,1.24052 0.878907,1.86133 12.775291,-6.05318 25.339171,-12.95234 35.955581,-22.39702 4.80682,-4.15823 8.96108,-9.06674 14.1481,-12.78103 4.2609,-3.046938 9.25924,-4.993337 14.27327,-6.419604 -0.19159,-0.659074 -0.38262,-1.318319 -0.57031,-1.978516 -0.17057,0.05078 -0.34115,0.101563 -0.51172,0.152344 z" />
    <path
       id="path2107"
       style="color:#000000;fill:#666666;fill-rule:evenodd;stroke:#f2f2f2;stroke-width:0.5;stroke-miterlimit:4;stroke-dasharray:none"
       d="m 157.85547,106.55273 c -10.64525,1.84027 -20.46596,6.61679 -30.02559,11.45133 -9.7754,4.97482 -19.55524,10.04053 -29.927536,13.68149 -3.553135,1.25674 -7.242921,2.3768 -10.929688,3.30468 0.16833,0.66496 0.336118,1.33005 0.507813,1.99415 11.477292,-2.84415 22.388781,-7.56962 32.918121,-12.87935 9.86982,-4.88774 19.53628,-10.36124 30.10307,-13.65947 2.69552,-0.83504 5.44641,-1.48885 8.22881,-1.95923 -0.1178,-0.67568 -0.2329,-1.35182 -0.35156,-2.02735 -0.17448,0.0312 -0.34896,0.0625 -0.52344,0.0938 z" />
    <path
       id="path2109"
       style="color:#000000;fill:#666666;fill-rule:evenodd;stroke:#f2f2f2;stroke-width:0.5;stroke-miterlimit:4;stroke-dasharray:none"
       d="m 160.9082,115.44531 c -9.5896,0.80867 -18.76214,3.96422 -27.82084,7.02622 -12.0515,4.16825 -24.11097,8.38151 -36.642371,10.86176 -3.105669,0.62461 -6.232004,1.14772 -9.37077,1.57687 0.0944,0.67942 0.186958,1.35909 0.277343,2.03906 12.937158,-1.71392 25.529568,-5.33718 37.844828,-9.56717 9.46745,-3.158 18.82438,-6.78559 28.61913,-8.8301 2.56985,-0.52108 5.16787,-0.90981 7.78409,-1.09883 -0.0535,-0.68488 -0.10781,-1.36971 -0.16016,-2.05468 -0.17708,0.0156 -0.35416,0.0312 -0.53125,0.0469 z" />
    <path
       id="path2111"
       style="color:#000000;fill:#666666;fill-rule:evenodd;stroke:#f2f2f2;stroke-width:0.5;stroke-miterlimit:4;stroke-dasharray:none"
       d="m 160.02734,122.42578 c -6.64317,0.20834 -13.09789,1.96133 -19.55652,3.37102 -12.01184,2.80024 -24.07554,5.18039 -36.28422,6.92936 -5.675754,0.82391 -11.372875,1.53054 -17.086991,2.16446 0.07606,0.68216 0.151759,1.36437 0.22461,2.04688 16.364251,-1.77757 32.647641,-4.35408 48.701901,-7.99862 6.44852,-1.38201 12.80547,-3.09438 19.32546,-4.04437 2.47923,-0.3615 5.07169,-0.50041 7.61522,-0.35154 0.0388,-0.68499 0.0787,-1.36991 0.12109,-2.05469 -1.02012,-0.0401 -2.03936,-0.0823 -3.06055,-0.0625 z" />
    <path
       id="path2113"
       style="color:#000000;fill:#666666;fill-rule:evenodd;stroke:#f2f2f2;stroke-width:0.5;stroke-miterlimit:4;stroke-dasharray:none"
       d="m 162.81641,125.55078 c -25.24351,3.11511 -50.48689,6.23123 -75.730472,9.3457 0.08304,0.68111 0.168903,1.36187 0.251953,2.04297 25.418729,-3.13583 50.837129,-6.27432 76.255859,-9.41015 -0.083,-0.68111 -0.1689,-1.36187 -0.25195,-2.04297 -0.17513,0.0215 -0.35026,0.043 -0.52539,0.0645 z" />
    <path
       id="path2115"
       style="color:#000000;fill:#666666;fill-rule:evenodd;stroke:#f2f2f2;stroke-width:0.5;stroke-miterlimit:4;stroke-dasharray:none"
       d="m 163.00977,127.08203 c -25.30076,2.60114 -50.60171,5.20047 -75.902348,7.80274 0.06797,0.68246 0.137852,1.36473 0.208984,2.04687 25.476834,-2.6158 50.953214,-5.23611 76.429684,-7.85547 -0.068,-0.68246 -0.13785,-1.36473 -0.20898,-2.04687 -0.17578,0.0176 -0.35156,0.0351 -0.52734,0.0527 z" />
    <path
       id="path2117"
       style="color:#000000;fill:#666666;fill-rule:evenodd;stroke:#f2f2f2;stroke-width:0.5;stroke-miterlimit:4;stroke-dasharray:none"
       d="m 163.43164,132.16992 c -25.41926,0.8916 -50.83861,1.7806 -76.257812,2.67383 0.02257,0.6856 0.04667,1.37115 0.07227,2.05664 25.594452,-0.89627 51.188852,-1.79395 76.783202,-2.69336 -0.0228,-0.68489 -0.0456,-1.36979 -0.0684,-2.05469 -0.17643,0.006 -0.35287,0.0117 -0.5293,0.0176 z" />
    <path
       id="path2119"
       style="color:#000000;fill:#666666;fill-rule:evenodd;stroke:#f2f2f2;stroke-width:0.5;stroke-miterlimit:4;stroke-dasharray:none"
       d="m 163.33398,130.55859 c -25.3945,1.43341 -50.78922,2.86311 -76.183589,4.29883 0.04102,0.68478 0.07923,1.36973 0.117187,2.05469 25.570332,-1.44227 51.140782,-2.88279 76.710942,-4.32813 -0.041,-0.68478 -0.0792,-1.36973 -0.11719,-2.05468 -0.17578,0.01 -0.35156,0.0195 -0.52735,0.0293 z" />
    <path
       id="path2121"
       style="color:#000000;fill:#666666;fill-rule:evenodd;stroke:#f2f2f2;stroke-width:0.5;stroke-miterlimit:4;stroke-dasharray:none"
       d="m 163.20508,128.96289 c -25.35807,1.96878 -50.71616,3.93735 -76.074221,5.90625 0.05367,0.68352 0.104544,1.36726 0.158203,2.05078 25.534488,-1.98259 51.069028,-3.96467 76.603518,-5.94726 -0.0529,-0.68363 -0.10723,-1.36716 -0.16016,-2.05078 -0.17578,0.0137 -0.35156,0.0273 -0.52734,0.041 z" />
    <path
       id="path4559"
       style="color:#000000;fill:#666666;fill-rule:evenodd;stroke:#f2f2f2;stroke-width:0.5;stroke-miterlimit:4;stroke-dasharray:none"
       d="m 13.800781,119.63281 c -0.597165,-0.0158 -1.12167,0.28583 -1.605469,0.59961 0.355406,0.53152 0.712469,1.06192 1.070313,1.5918 1.638354,-0.36077 3.304329,0.18545 4.927193,0.41374 8.425248,1.72624 16.735984,3.95788 25.104232,5.93454 14.733844,3.53355 29.544201,6.90999 44.597481,8.77086 0.08307,-0.68102 0.165537,-1.36212 0.25,-2.04297 -16.595868,-2.05992 -32.88129,-5.94998 -49.121244,-9.88241 -7.12013,-1.69993 -14.200053,-3.59578 -21.38981,-4.97703 -1.265463,-0.21184 -2.544409,-0.44402 -3.832696,-0.40814 z" />
    <path
       id="path4561"
       style="color:#000000;fill:#666666;fill-rule:evenodd;stroke:#f2f2f2;stroke-width:0.5;stroke-miterlimit:4;stroke-dasharray:none"
       d="m 74.023438,61.083984 c -0.292478,10.620582 2.407512,21.012191 5.197858,31.169996 2.827123,10.25851 5.856241,20.50558 6.950579,31.13079 0.439346,4.25953 0.552832,8.61701 0.267578,12.93359 0.68503,0.0401 1.36978,0.0848 2.054688,0.12695 0.737433,-10.5385 -1.021343,-21.06507 -3.597187,-31.25111 -2.739723,-11.020139 -6.466502,-21.892311 -8.12547,-33.119981 -0.544644,-3.791 -0.810181,-7.621595 -0.679687,-11.464844 -0.686186,-0.02061 -1.372393,-0.04046 -2.058594,-0.06055 -0.0033,0.178386 -0.0065,0.356771 -0.0098,0.535156 z" />
    <path
       id="path4563"
       style="color:#000000;fill:#666666;fill-rule:evenodd;stroke:#f2f2f2;stroke-width:0.5;stroke-miterlimit:4;stroke-dasharray:none"
       d="m 53.541016,67.482422 c -0.311726,0.365651 -1.508778,0.500625 -1.16127,1.036437 7.419046,12.504438 14.200828,25.390432 19.722571,38.859281 3.499809,8.30465 6.357613,16.97701 11.331848,24.56344 1.110774,1.71063 2.320639,3.35329 3.567788,4.96662 0.543289,-0.41978 1.084083,-0.84279 1.625,-1.26562 -3.749705,-4.70417 -6.737009,-9.97507 -9.079805,-15.50748 -3.229975,-7.6094 -6.108055,-15.36844 -9.602403,-22.863022 -4.720492,-10.322185 -10.164613,-20.298372 -15.946698,-30.06114 -0.152344,0.09049 -0.304688,0.180989 -0.457031,0.271484 z" />
    <path
       id="path4565"
       style="color:#000000;fill:#666666;fill-rule:evenodd;stroke:#f2f2f2;stroke-width:0.5;stroke-miterlimit:4;stroke-dasharray:none"
       d="m 35.460938,79.890625 c -0.130579,0.447752 -0.955358,1.050521 -0.64048,1.399356 6.384164,3.913028 11.756301,9.28945 16.211793,15.272139 6.113507,8.15035 11.119289,17.11657 17.836208,24.81409 5.279494,6.17155 11.572904,11.46211 18.539744,15.63551 0.357062,-0.58511 0.712333,-1.17131 1.070313,-1.75586 C 81.795237,131.24875 75.739945,126.19919 70.620077,120.26144 63.95654,112.65913 58.980747,103.79918 52.957031,95.689453 48.357102,89.476375 42.840601,83.850325 36.244129,79.757906 35.828874,79.436241 35.689045,79.338779 35.460938,79.890625 Z" />
    <path
       id="path4567"
       style="color:#000000;fill:#666666;fill-rule:evenodd;stroke:#f2f2f2;stroke-width:0.5;stroke-miterlimit:4;stroke-dasharray:none"
       d="m 23.580078,93.949219 c -0.0041,0.467533 -0.63173,1.274821 -0.234195,1.524198 5.826071,1.640315 11.59648,4.09886 16.285282,8.045353 4.537048,3.76054 8.464025,8.19203 12.969384,11.9897 10.396614,9.0002 22.564484,15.64108 34.932654,21.5052 0.292184,-0.62081 0.586859,-1.24045 0.878906,-1.86133 C 75.914377,129.22497 63.634225,122.52717 53.219623,113.32212 47.562898,108.45983 42.764948,102.52278 36.301346,98.660104 32.4061,96.289652 28.096796,94.692509 23.728516,93.4375 c -0.04948,0.170573 -0.09896,0.341146 -0.148438,0.511719 z" />
    <path
       id="path4569"
       style="color:#000000;fill:#666666;fill-rule:evenodd;stroke:#f2f2f2;stroke-width:0.5;stroke-miterlimit:4;stroke-dasharray:none"
       d="m 16.761719,106.98438 c 0.07575,0.47411 -0.59805,1.47176 0.03543,1.55542 10.702308,1.81576 20.539889,6.71821 30.12707,11.56429 10.463724,5.34377 20.98517,10.70596 32.183517,14.36672 2.84725,0.94996 5.735281,1.77205 8.644216,2.51357 0.171764,-0.66408 0.339425,-1.32921 0.507813,-1.99415 C 76.52481,132.08604 65.435382,127.16078 54.6765,121.6915 44.227783,116.46846 33.897928,110.68451 22.532012,107.67449 c -1.872749,-0.49396 -3.76964,-0.88848 -5.678496,-1.21551 -0.0306,0.17513 -0.0612,0.35026 -0.0918,0.5254 z" />
    <path
       id="path4571"
       style="color:#000000;fill:#666666;fill-rule:evenodd;stroke:#f2f2f2;stroke-width:0.5;stroke-miterlimit:4;stroke-dasharray:none"
       d="m 13.751953,115.93164 c 0.09154,0.45789 -0.359897,1.37637 0.08013,1.53859 9.033335,0.7155 17.692619,3.62532 26.226592,6.49761 11.696301,4.01092 23.382028,8.17493 35.490363,10.78892 4.07813,0.89951 8.194101,1.62656 12.331824,2.19246 0.09031,-0.67998 0.183024,-1.35963 0.277344,-2.03906 -11.968618,-1.58745 -23.625671,-4.83356 -35.034807,-8.68303 -9.763254,-3.22548 -19.379647,-6.98371 -29.416538,-9.29872 -3.264303,-0.73737 -6.57517,-1.28298 -9.913889,-1.52997 -0.01367,0.17773 -0.02734,0.35547 -0.04102,0.5332 z" />
    <path
       id="path4573"
       style="color:#000000;fill:#666666;fill-rule:evenodd;stroke:#f2f2f2;stroke-width:0.5;stroke-miterlimit:4;stroke-dasharray:none"
       d="m 12.025391,124.59375 c 0.06069,0.46413 -0.447825,1.3549 -0.02072,1.5436 25.289587,3.6024 50.578794,7.20746 75.868373,10.80992 0.0962,-0.67906 0.192866,-1.35805 0.289062,-2.03711 -25.354286,-3.61179 -50.708213,-7.22611 -76.0625,-10.83789 -0.02474,0.17382 -0.04948,0.34765 -0.07422,0.52148 z" />
    <path
       id="path4575"
       style="color:#000000;fill:#666666;fill-rule:evenodd;stroke:#f2f2f2;stroke-width:0.5;stroke-miterlimit:4;stroke-dasharray:none"
       d="m 11.826172,126.01172 c 0.09694,0.47053 -0.526573,1.50437 0.110268,1.55411 25.31942,3.12408 50.638627,6.2499 75.958091,9.37362 0.08304,-0.6811 0.168904,-1.36186 0.251953,-2.04297 -25.418729,-3.13583 -50.83713,-6.27432 -76.255859,-9.41015 -0.02148,0.17513 -0.04297,0.35026 -0.06445,0.52539 z" />
    <path
       id="path4577"
       style="color:#000000;fill:#666666;fill-rule:evenodd;stroke:#f2f2f2;stroke-width:0.5;stroke-miterlimit:4;stroke-dasharray:none"
       d="m 11.640625,127.55469 c 0.106681,0.46895 -0.49338,1.51425 0.144091,1.55254 25.377089,2.60824 50.753915,5.21909 76.1313,7.82441 0.07119,-0.68213 0.140956,-1.36442 0.208984,-2.04687 -25.476472,-2.61936 -50.952853,-5.23967 -76.429688,-7.85547 -0.01823,0.17513 -0.03646,0.35026 -0.05469,0.52539 z" />
    <path
       id="path4579"
       style="color:#000000;fill:#666666;fill-rule:evenodd;stroke:#f2f2f2;stroke-width:0.5;stroke-miterlimit:4;stroke-dasharray:none"
       d="m 11.253906,132.68164 c 0.139514,0.4595 -0.389616,1.54226 0.249015,1.53645 25.494449,0.89463 50.98888,1.7899 76.483407,2.6823 0.02557,-0.68549 0.04973,-1.37104 0.07227,-2.05664 -25.595644,-0.89877 -51.191352,-1.79589 -76.78711,-2.69141 -0.0059,0.17644 -0.01172,0.35287 -0.01758,0.5293 z" />
    <path
       id="path4581"
       style="color:#000000;fill:#666666;fill-rule:evenodd;stroke:#f2f2f2;stroke-width:0.5;stroke-miterlimit:4;stroke-dasharray:none"
       d="m 11.341797,131.05859 c 0.129279,0.46311 -0.426581,1.53424 0.211588,1.54308 25.470425,1.43787 50.940934,2.87432 76.411459,4.31044 0.0379,-0.68496 0.07623,-1.3699 0.117187,-2.05469 -25.57016,-1.44533 -51.140601,-2.88585 -76.710937,-4.32812 -0.0098,0.17643 -0.01953,0.35286 -0.0293,0.52929 z" />
    <path
       id="path4583"
       style="color:#000000;fill:#666666;fill-rule:evenodd;stroke:#f2f2f2;stroke-width:0.5;stroke-miterlimit:4;stroke-dasharray:none"
       d="m 11.458984,129.44922 c 0.118315,0.46542 -0.458354,1.52566 0.179956,1.5467 25.434149,1.97476 50.868323,3.94918 76.302466,5.924 0.05292,-0.68363 0.107233,-1.36715 0.160156,-2.05078 -25.53384,-1.98259 -51.067721,-3.96467 -76.601562,-5.94726 -0.01367,0.17578 -0.02734,0.35156 -0.04102,0.52734 z" />
  </g>
  <g
     inkscape:groupmode="layer"
     id="layer5"
     inkscape:label="Book cover"
     style="display:inline"
     transform="translate(24.250887,-5.9407268)"
     sodipodi:insensitive="true">
    <path
       id="rect1175"
       style="color:#000000;display:inline;overflow:visible;fill:#aa4400;stroke:#552200;stroke-width:1.88976;stroke-linecap:round;stroke-linejoin:round;stroke-miterlimit:4;stroke-dasharray:none;stop-color:#000000"
       d="M 331.45703,491.78516 A 21.466802,21.466802 0 0 0 310.81641,507.4043 H 21.65625 v 11.69726 h 289.16016 a 21.466802,21.466802 0 0 0 20.64062,15.61719 21.466802,21.466802 0 0 0 20.53906,-15.61133 H 643.20117 V 507.39844 H 351.99609 a 21.466802,21.466802 0 0 0 -20.53906,-15.61328 z"
       transform="scale(0.26458333)" />
  </g>
  <g
     inkscape:groupmode="layer"
     id="layer4"
     inkscape:label="Dial"
     style="display:inline"
     transform="translate(24.250887,-5.9407268)">
    <path
       id="path7072"
       style="display:inline;overflow:visible;fill:#ff0000;stroke:#ffffff;stroke-width:0.5;stroke-linecap:round;stroke-linejoin:round;stroke-miterlimit:4;stroke-dasharray:none;stop-color:#000000"
       d="m 88.265207,138.0559 c -1.178169,0.13226 -3.289551,-1.32329 -3.3585,-1.93746 -0.06895,-0.61417 1.667122,-2.50168 2.845288,-2.63395 1.178161,-0.13226 82.971535,-6.90217 83.040485,-6.288 0.069,0.61416 -81.349113,10.72715 -82.527273,10.85941 z"
       sodipodi:nodetypes="sssss"
       inkscape:transform-center-x="-39.817263"
       inkscape:transform-center-y="-3.220955" />
    <circle
       style="color:#000000;overflow:visible;opacity:1;fill:#800000;fill-opacity:1;stroke:none;stroke-width:0.255711;stroke-linecap:round;stroke-linejoin:round;stroke-miterlimit:4;stroke-dasharray:none;stop-color:#000000"
       id="path10333"
       cx="87.955093"
       cy="135.79791"
       r="0.84502286" />
  </g>
  <g
     inkscape:groupmode="layer"
     id="layer9"
     inkscape:label="Text"
     transform="translate(24.250887,-5.9407268)"
     sodipodi:insensitive="true">
    <text
       xml:space="preserve"
       style="font-size:24.6944px;line-height:27.6578px;font-family:'Faster One';-inkscape-font-specification:'Faster One';letter-spacing:0px;word-spacing:0px;fill:none;stroke:#000000;stroke-width:0.264583px;stroke-linecap:butt;stroke-linejoin:miter;stroke-opacity:1"
       x="90.897255"
       y="158.28729"
       id="text1924"><tspan
         sodipodi:role="line"
         id="tspan1922"
         style="font-size:24.6944px;text-align:center;text-anchor:middle;fill:#000000;stroke:none;stroke-width:0.264583px"
         x="90.897255"
         y="158.28729">metabefor</tspan></text>
  </g>
  <g
     inkscape:groupmode="layer"
     id="layer10"
     inkscape:label="Hex"
     transform="translate(24.250887,-5.9407268)">
    <path
       style="display:inline;isolation:isolate;fill:#000000;fill-opacity:1;stroke:none;stroke-width:0.264451;stroke-opacity:0.572549"
       inkscape:connector-curvature="0"
       id="path1094-2"
       d="m 95.705465,225.87693 73.467545,-42.41326 15.9564,-9.2315 0.002,-18.41151 -0.002,-84.831434 0.002,-8.944958 L 87.957686,5.9407326 80.213,10.416469 5.8245996,53.366898 l -15.0355943,8.694381 -0.010247,17.368364 0.010247,85.874537 -0.0027,8.94499 97.1741007,56.1035 z M -1.6977054,169.64126 -1.6841572,66.375375 87.726617,14.753509 l 89.433153,51.634239 -7e-4,103.242962 v 0 l -89.424108,51.64481 z"
       class="cls-3" />
  </g>
</svg>
