<?xml version="1.0" encoding="UTF-8" standalone="no"?>
<!-- Created with Inkscape (http://www.inkscape.org/) -->

<svg
   width="216.30046mm"
   height="330.57263mm"
   viewBox="0 0 216.30046 330.57263"
   version="1.1"
   id="svg980"
   inkscape:version="1.1.1 (3bf5ae0d25, 2021-09-20)"
   sodipodi:docname="sysrevving-book-cover.svg"
   xmlns:inkscape="http://www.inkscape.org/namespaces/inkscape"
   xmlns:sodipodi="http://sodipodi.sourceforge.net/DTD/sodipodi-0.dtd"
   xmlns:xlink="http://www.w3.org/1999/xlink"
   xmlns="http://www.w3.org/2000/svg"
   xmlns:svg="http://www.w3.org/2000/svg">
  <sodipodi:namedview
     id="namedview982"
     pagecolor="#ffffff"
     bordercolor="#666666"
     borderopacity="1.0"
     inkscape:pageshadow="2"
     inkscape:pageopacity="0.0"
     inkscape:pagecheckerboard="0"
     inkscape:document-units="mm"
     showgrid="false"
     inkscape:snap-global="false"
     inkscape:snap-bbox="true"
     inkscape:snap-midpoints="true"
     inkscape:bbox-paths="true"
     inkscape:snap-bbox-edge-midpoints="true"
     inkscape:snap-bbox-midpoints="true"
     inkscape:object-paths="true"
     inkscape:snap-center="true"
     inkscape:snap-object-midpoints="true"
     inkscape:bbox-nodes="true"
     inkscape:snap-intersection-paths="true"
     inkscape:snap-smooth-nodes="true"
     inkscape:zoom="0.35355339"
     inkscape:cx="63.63961"
     inkscape:cy="700.03571"
     inkscape:window-width="1920"
     inkscape:window-height="1013"
     inkscape:window-x="-9"
     inkscape:window-y="-9"
     inkscape:window-maximized="1"
     inkscape:current-layer="layer11"
     fit-margin-top="0"
     fit-margin-left="0"
     fit-margin-right="0"
     fit-margin-bottom="0" />
  <defs
     id="defs977">
    <linearGradient
       inkscape:collect="always"
       xlink:href="#linearGradient834"
       id="linearGradient836"
       x1="-15.497024"
       y1="60.325001"
       x2="0"
       y2="60.325001"
       gradientUnits="userSpaceOnUse"
       gradientTransform="matrix(0,21.331345,-13.308357,0,902.31136,262.4301)" />
    <linearGradient
       inkscape:collect="always"
       id="linearGradient834">
      <stop
         style="stop-color:#b63679;stop-opacity:1"
         offset="0"
         id="stop830" />
      <stop
         style="stop-color:#2d1160;stop-opacity:1"
         offset="1"
         id="stop832" />
    </linearGradient>
  </defs>
  <g
     inkscape:label="Background"
     inkscape:groupmode="layer"
     id="layer1"
     style="display:none"
     transform="translate(18.019034,62.354316)"
     sodipodi:insensitive="true">
    <circle
       style="color:#000000;overflow:visible;opacity:1;fill:#e6e6e6;stroke:#552200;stroke-width:0.0761086;stroke-linecap:round;stroke-linejoin:round;stop-color:#000000"
       id="path1385"
       cx="87.698158"
       cy="135.79799"
       r="75.774696" />
  </g>
  <g
     inkscape:groupmode="layer"
     id="layer11"
     inkscape:label="SysRevving Book Cover BG"
     style="display:inline"
     transform="translate(8.6655663,68.142349)">
    <rect
       style="color:#000000;clip-rule:nonzero;display:inline;overflow:visible;visibility:visible;isolation:auto;mix-blend-mode:normal;color-interpolation:sRGB;color-interpolation-filters:linearRGB;solid-color:#000000;solid-opacity:1;fill:#ffffff;fill-opacity:1;fill-rule:nonzero;stroke:none;stroke-width:11.5565;stroke-linecap:square;stroke-linejoin:miter;stroke-miterlimit:4;stroke-dasharray:none;stroke-dashoffset:0;stroke-opacity:1;color-rendering:auto;image-rendering:auto;shape-rendering:auto;text-rendering:auto;enable-background:accumulate"
       id="rect2076"
       width="189.35822"
       height="149.60832"
       x="4.4122429"
       y="30.029957"
       rx="9.9035234"
       ry="10.142729" />
  </g>
  <g
     inkscape:groupmode="layer"
     id="layer6"
     inkscape:label="Ticks"
     style="display:inline"
     transform="translate(18.019034,62.354316)"
     sodipodi:insensitive="true" />
  <g
     inkscape:groupmode="layer"
     id="layer7"
     inkscape:label="Tick-cover"
     style="display:inline"
     transform="translate(18.019034,62.354316)"
     sodipodi:insensitive="true" />
  <g
     inkscape:groupmode="layer"
     id="layer3"
     inkscape:label="Spectrum"
     style="display:inline"
     transform="translate(18.019034,62.354316)"
     sodipodi:insensitive="true" />
  <g
     inkscape:groupmode="layer"
     id="layer8"
     inkscape:label="Lighter Spectrum"
     style="display:none"
     transform="translate(18.019034,62.354316)"
     sodipodi:insensitive="true">
    <path
       style="color:#000000;display:inline;overflow:visible;opacity:1;fill:#975dff;fill-opacity:1;stroke:none;stroke-width:0.0761086;stroke-linecap:round;stroke-linejoin:round;stop-color:#000000"
       id="path913"
       sodipodi:type="arc"
       sodipodi:cx="-87.698158"
       sodipodi:cy="-135.79799"
       sodipodi:rx="75.774696"
       sodipodi:ry="75.774696"
       sodipodi:start="0"
       sodipodi:end="0.52359878"
       sodipodi:arc-type="slice"
       d="m -11.923462,-135.79799 a 75.774696,75.774696 0 0 1 -10.151884,37.88735 l -65.622812,-37.88735 z"
       transform="scale(-1)" />
    <path
       style="color:#000000;display:inline;overflow:visible;opacity:1;fill:#ed87ff;fill-opacity:1;stroke:none;stroke-width:0.0761086;stroke-linecap:round;stroke-linejoin:round;stop-color:#000000"
       id="path915"
       sodipodi:type="arc"
       sodipodi:cx="-143.84782"
       sodipodi:cy="-73.755432"
       sodipodi:rx="75.774696"
       sodipodi:ry="75.774696"
       sodipodi:start="0"
       sodipodi:end="0.52359878"
       sodipodi:arc-type="slice"
       d="m -68.073128,-73.755432 a 75.774696,75.774696 0 0 1 -10.151884,37.887348 l -65.622808,-37.887348 z"
       transform="rotate(-150)" />
    <path
       style="color:#000000;display:inline;overflow:visible;opacity:1;fill:#ff74bd;fill-opacity:1;stroke:none;stroke-width:0.0761086;stroke-linecap:round;stroke-linejoin:round;stop-color:#000000"
       id="path917"
       sodipodi:type="arc"
       sodipodi:cx="-161.45358"
       sodipodi:cy="8.0498343"
       sodipodi:rx="75.774696"
       sodipodi:ry="75.774696"
       sodipodi:start="0"
       sodipodi:end="0.52359878"
       sodipodi:arc-type="slice"
       d="M -85.678886,8.0498343 A 75.774696,75.774696 0 0 1 -95.830771,45.937183 L -161.45358,8.0498343 Z"
       transform="rotate(-120)" />
    <path
       style="color:#000000;display:inline;overflow:visible;opacity:1;fill:#ff908d;fill-opacity:1;stroke:none;stroke-width:0.0761086;stroke-linecap:round;stroke-linejoin:round;stop-color:#000000"
       id="path919"
       sodipodi:type="arc"
       sodipodi:cx="-135.79799"
       sodipodi:cy="87.698151"
       sodipodi:rx="75.774696"
       sodipodi:ry="75.774696"
       sodipodi:start="0"
       sodipodi:end="0.52359878"
       sodipodi:arc-type="slice"
       d="M -60.023293,87.698151 A 75.774696,75.774696 0 0 1 -70.175177,125.5855 L -135.79799,87.698151 Z"
       transform="rotate(-90)" />
    <path
       style="color:#000000;display:inline;overflow:visible;opacity:1;fill:#ffae74;fill-opacity:1;stroke:none;stroke-width:0.0761086;stroke-linecap:round;stroke-linejoin:round;stop-color:#000000"
       id="path921"
       sodipodi:type="arc"
       sodipodi:cx="-73.755432"
       sodipodi:cy="143.84782"
       sodipodi:rx="75.774696"
       sodipodi:ry="75.774696"
       sodipodi:start="0"
       sodipodi:end="0.52359878"
       sodipodi:arc-type="slice"
       d="M 2.0192642,143.84782 A 75.774696,75.774696 0 0 1 -8.1326203,181.73517 L -73.755432,143.84782 Z"
       transform="rotate(-60)" />
    <path
       style="color:#000000;display:inline;overflow:visible;opacity:1;fill:#fcff49;fill-opacity:1;stroke:none;stroke-width:0.0761086;stroke-linecap:round;stroke-linejoin:round;stop-color:#000000"
       id="path923"
       sodipodi:type="arc"
       sodipodi:cx="8.0498343"
       sodipodi:cy="161.45358"
       sodipodi:rx="75.774696"
       sodipodi:ry="75.774696"
       sodipodi:start="0"
       sodipodi:end="0.52359878"
       sodipodi:arc-type="slice"
       d="M 83.824531,161.45358 A 75.774696,75.774696 0 0 1 73.672646,199.34093 L 8.0498343,161.45358 Z"
       transform="rotate(-30)" />
  </g>
  <g
     inkscape:groupmode="layer"
     id="layer2"
     inkscape:label="Book pages"
     style="display:inline"
     transform="translate(18.019034,62.354316)"
     sodipodi:insensitive="true" />
  <g
     inkscape:groupmode="layer"
     id="layer5"
     inkscape:label="Book cover"
     style="display:inline"
     transform="translate(18.019034,62.354316)"
     sodipodi:insensitive="true" />
  <g
     inkscape:groupmode="layer"
     id="layer4"
     inkscape:label="Dial"
     style="display:inline"
     transform="translate(18.019034,62.354316)"
     sodipodi:insensitive="true" />
  <g
     inkscape:groupmode="layer"
     id="layer9"
     inkscape:label="Text"
     transform="translate(18.019034,62.354316)"
     sodipodi:insensitive="true">
    <path
       sodipodi:type="star"
       style="color:#000000;display:inline;overflow:visible;opacity:1;fill:#000000;fill-opacity:1;stroke:#000000;stroke-width:2.09622;stroke-linecap:butt;stroke-linejoin:round;stroke-miterlimit:2;stroke-dasharray:none;stroke-opacity:1;stop-color:#000000"
       id="path10535"
       inkscape:flatsided="false"
       sodipodi:sides="50"
       sodipodi:cx="185.78558"
       sodipodi:cy="154.56113"
       sodipodi:r1="11.265177"
       sodipodi:r2="225.30354"
       sodipodi:arg1="0.78539816"
       sodipodi:arg2="0.84823001"
       inkscape:rounded="0"
       inkscape:randomized="0"
       transform="matrix(0.36109495,0,0,0.36109495,22.739654,92.157513)"
       d="M 193.75127,162.52681 334.78149,323.56381 192.69009,163.46236 312.42496,340.90531 191.52003,164.25754 288.07125,355.30805 190.25952,164.89979 262.10444,366.5449 188.92847,165.379 234.93403,374.43863 187.54785,165.68761 206.98852,378.86476 186.13943,165.82074 178.70863,379.7535 184.72544,165.77631 150.54035,377.09081 183.32816,165.555 122.9279,370.9187 181.96964,165.16031 96.306758,361.3345 180.6713,164.59847 71.09675,348.48936 179.45361,163.87834 47.695454,332.58585 178.33579,163.01126 26.471921,313.87479 177.33545,162.01092 7.7608605,292.65126 176.46837,160.8931 -8.1426441,269.24996 175.74824,159.67541 -20.987785,244.03995 175.1864,158.37707 -30.571986,217.41881 174.79171,157.01855 -36.744099,189.80637 174.5704,155.62127 -39.406786,161.63808 174.52597,154.20728 -38.518055,133.35819 174.6591,152.79886 -34.091921,105.41268 174.96771,151.41824 -26.198188,78.242274 175.44692,150.08719 -14.961344,52.27546 176.08917,148.82669 -0.55860113,27.921751 176.88435,147.65662 16.782901,5.5652215 177.8199,146.59544 36.789676,-14.441554 178.88108,145.65989 59.146206,-31.783056 180.05114,144.86472 83.499914,-46.185799 181.31164,144.22246 109.46673,-57.422644 182.6427,143.74325 136.63714,-65.316377 184.02332,143.43464 164.58265,-69.742511 185.43174,143.30151 192.86254,-70.631243 186.84573,143.34595 221.03082,-67.968556 188.24301,143.56725 248.64327,-61.796443 189.60153,143.96194 275.26441,-52.212243 190.89987,144.52378 300.47442,-39.367102 192.11755,145.24392 323.87571,-23.463598 193.23538,146.11099 345.09925,-4.7525375 194.23572,147.11133 363.81031,16.470995 195.10279,148.22916 379.71381,39.872291 195.82293,149.44684 392.55895,65.082298 196.38477,150.74518 402.14315,91.703441 196.77946,152.1037 l 211.53581,-32.78781 -211.3145,34.18509 213.97718,-6.01681 -213.93275,7.4308 213.04402,20.84909 -213.17715,-19.44067 208.75102,47.38618 -209.05963,-46.00556 201.16589,73.17597 -201.6451,-71.84491 190.40826,97.81172 L 195.48199,160.29557 372.12977,281.2005 194.68682,161.46563 354.78827,303.55703 Z" />
    <rect
       style="color:#000000;display:inline;overflow:visible;fill:#ffffff;fill-opacity:1;stroke:none;stroke-width:1.34766;stroke-linecap:square;stroke-linejoin:miter;stroke-miterlimit:4;stroke-dasharray:none;stroke-opacity:1;stop-color:#000000"
       id="rect11182"
       width="164.95042"
       height="80.59716"
       x="7.3506742"
       y="147.96858" />
    <circle
       style="color:#000000;display:inline;overflow:visible;fill:#ffffff;stroke:none;stroke-width:0.0785514;stroke-linecap:round;stroke-linejoin:round;stop-color:#000000"
       id="circle1093"
       cx="89.568954"
       cy="147.96866"
       r="78.206848" />
    <path
       style="color:#000000;display:inline;overflow:visible;opacity:1;fill:#2d1160;fill-opacity:1;stroke:none;stroke-width:0.0761086;stroke-linecap:round;stroke-linejoin:round;stop-color:#000000"
       id="circle8242"
       sodipodi:type="arc"
       sodipodi:cx="-89.568954"
       sodipodi:cy="-147.96866"
       sodipodi:rx="75.774696"
       sodipodi:ry="75.774696"
       sodipodi:start="0"
       sodipodi:end="0.52359878"
       sodipodi:arc-type="slice"
       transform="scale(-1)"
       d="m -13.794258,-147.96866 a 75.774696,75.774696 0 0 1 -10.151885,37.88735 l -65.622811,-37.88735 z" />
    <path
       style="color:#000000;display:inline;overflow:visible;opacity:1;fill:#721f81;fill-opacity:1;stroke:none;stroke-width:0.0761086;stroke-linecap:round;stroke-linejoin:round;stop-color:#000000"
       id="path8893"
       sodipodi:type="arc"
       sodipodi:cx="-151.5535"
       sodipodi:cy="-83.360359"
       sodipodi:rx="75.774696"
       sodipodi:ry="75.774696"
       sodipodi:start="0"
       sodipodi:end="0.52359878"
       sodipodi:arc-type="slice"
       transform="rotate(-150)"
       d="m -75.778801,-83.360359 a 75.774696,75.774696 0 0 1 -10.151884,37.887348 L -151.5535,-83.360359 Z" />
    <path
       style="color:#000000;display:inline;overflow:visible;opacity:1;fill:#b63679;fill-opacity:1;stroke:none;stroke-width:0.0761086;stroke-linecap:round;stroke-linejoin:round;stop-color:#000000"
       id="path8935"
       sodipodi:type="arc"
       sodipodi:cx="-172.92912"
       sodipodi:cy="3.5845766"
       sodipodi:rx="75.774696"
       sodipodi:ry="75.774696"
       sodipodi:start="0"
       sodipodi:end="0.52359878"
       sodipodi:arc-type="slice"
       transform="rotate(-120)"
       d="M -97.154427,3.5845766 A 75.774696,75.774696 0 0 1 -107.30631,41.471925 L -172.92912,3.5845766 Z" />
    <path
       style="color:#000000;display:inline;overflow:visible;opacity:1;fill:#f1605d;fill-opacity:1;stroke:none;stroke-width:0.0761086;stroke-linecap:round;stroke-linejoin:round;stop-color:#000000"
       id="path8937"
       sodipodi:type="arc"
       sodipodi:cx="-147.96866"
       sodipodi:cy="89.568947"
       sodipodi:rx="75.774696"
       sodipodi:ry="75.774696"
       sodipodi:start="0"
       sodipodi:end="0.52359878"
       sodipodi:arc-type="slice"
       transform="rotate(-90)"
       d="M -72.193962,89.568947 A 75.774696,75.774696 0 0 1 -82.345847,127.4563 L -147.96866,89.568947 Z" />
    <path
       style="color:#000000;display:inline;overflow:visible;opacity:1;fill:#feaf77;fill-opacity:1;stroke:none;stroke-width:0.0761086;stroke-linecap:round;stroke-linejoin:round;stop-color:#000000"
       id="path8939"
       sodipodi:type="arc"
       sodipodi:cx="-83.360359"
       sodipodi:cy="151.5535"
       sodipodi:rx="75.774696"
       sodipodi:ry="75.774696"
       sodipodi:start="0"
       sodipodi:end="0.52359878"
       sodipodi:arc-type="slice"
       transform="rotate(-60)"
       d="M -7.5856628,151.5535 A 75.774696,75.774696 0 0 1 -17.737547,189.44085 L -83.360359,151.5535 Z" />
    <path
       style="color:#000000;display:inline;overflow:visible;opacity:1;fill:#fcfdbf;fill-opacity:1;stroke:none;stroke-width:0.0761086;stroke-linecap:round;stroke-linejoin:round;stop-color:#000000"
       id="path8941"
       sodipodi:type="arc"
       sodipodi:cx="3.5845766"
       sodipodi:cy="172.92912"
       sodipodi:rx="75.774696"
       sodipodi:ry="75.774696"
       sodipodi:start="0"
       sodipodi:end="0.52359878"
       sodipodi:arc-type="slice"
       transform="rotate(-30)"
       d="M 79.359273,172.92912 A 75.774696,75.774696 0 0 1 69.207388,210.81647 L 3.5845766,172.92912 Z" />
    <path
       id="path1919"
       style="color:#000000;display:inline;fill:#666666;fill-rule:evenodd;stroke:#f2f2f2;stroke-width:0.5;stroke-miterlimit:4;stroke-dasharray:none"
       d="m 163.72236,131.32911 c -6.60272,0.0782 -13.15724,1.17225 -19.51305,2.92484 -8.6869,2.41267 -17.28939,5.14685 -26.07453,7.19759 -9.63712,2.32097 -19.410349,4.11831 -29.20539,5.63929 0.104747,0.6784 0.208625,1.35693 0.314453,2.03516 14.290827,-2.19693 28.492957,-5.0725 42.383697,-9.11053 8.24762,-2.30613 16.37967,-5.15714 24.8956,-6.14728 2.53306,-0.30322 5.18282,-0.44368 7.77149,-0.4961 -0.0132,-0.68618 -0.0243,-1.3724 -0.0371,-2.05859 -0.17839,0.005 -0.35677,0.0104 -0.53516,0.0156 z" />
    <path
       id="path2099"
       style="color:#000000;display:inline;fill:#666666;fill-rule:evenodd;stroke:#f2f2f2;stroke-width:0.5;stroke-miterlimit:4;stroke-dasharray:none"
       d="m 101.07392,72.952091 c -3.303101,9.618899 -4.253622,19.833393 -4.69578,29.935969 -0.468938,10.01548 -0.768333,20.11193 -2.946947,29.88616 -1.149806,5.25693 -2.820733,10.39823 -4.972506,15.33028 0.629858,0.27295 1.259999,0.54524 1.890625,0.81641 3.750635,-8.51604 5.930372,-17.66102 6.879036,-26.90229 1.360746,-12.33579 0.80566,-24.806492 2.937372,-37.06067 0.68873,-3.984465 1.69698,-7.999376 3.02539,-11.853515 -0.65055,-0.21891 -1.30031,-0.440201 -1.95117,-0.658203 -0.0553,0.168619 -0.11068,0.337239 -0.16602,0.505859 z" />
    <path
       id="path2101"
       style="color:#000000;display:inline;fill:#666666;fill-rule:evenodd;stroke:#f2f2f2;stroke-width:0.5;stroke-miterlimit:4;stroke-dasharray:none"
       d="m 122.88447,79.764591 c -6.44208,8.891351 -11.09909,18.915648 -15.10557,29.095229 -4.47411,11.29912 -8.541371,22.90192 -15.19466,33.1588 -1.281007,1.99498 -2.664885,3.92165 -4.109928,5.80073 0.54319,0.41852 1.087236,0.83594 1.630859,1.2539 6.3293,-8.07235 10.855609,-17.37148 14.656969,-26.85199 4.50902,-11.21511 8.48474,-22.731957 14.60452,-33.214249 1.67965,-2.920504 3.52945,-5.740334 5.49633,-8.474842 -0.55623,-0.40096 -1.11348,-0.800513 -1.66992,-1.201172 -0.10287,0.144531 -0.20573,0.289063 -0.3086,0.433594 z" />
    <path
       id="path2103"
       style="color:#000000;display:inline;fill:#666666;fill-rule:evenodd;stroke:#f2f2f2;stroke-width:0.5;stroke-miterlimit:4;stroke-dasharray:none"
       d="m 140.90791,91.897403 c -6.87626,4.256168 -12.57686,10.174147 -17.29625,16.694307 -5.88956,8.04325 -10.83482,16.75916 -17.46162,24.22282 -4.69169,5.35642 -10.158288,10.01717 -16.15407,13.75903 -0.337395,0.36126 -1.384712,0.55438 -1.266948,1.02385 0.322903,0.52785 0.643591,1.05706 0.965993,1.58522 7.494354,-4.4772 14.180355,-10.27394 19.714845,-17.02149 6.84284,-8.1841 11.92647,-17.65205 18.62845,-25.9423 4.01859,-4.99672 8.8871,-9.486653 14.40866,-12.866358 -0.36297,-0.581573 -0.72556,-1.163386 -1.08984,-1.744141 -0.14974,0.09635 -0.29948,0.192708 -0.44922,0.289062 z" />
    <path
       id="path2105"
       style="color:#000000;display:inline;fill:#666666;fill-rule:evenodd;stroke:#f2f2f2;stroke-width:0.5;stroke-miterlimit:4;stroke-dasharray:none"
       d="m 152.86494,105.76071 c -6.05397,1.72401 -11.94453,4.34824 -16.78975,8.42835 -4.629,3.83671 -8.63661,8.35729 -13.24424,12.22293 -10.19496,8.7375 -22.05823,15.182 -34.139842,20.91126 0.292053,0.62088 0.586727,1.24052 0.878907,1.86133 12.775295,-6.05318 25.339175,-12.95234 35.955585,-22.39702 4.80682,-4.15823 8.96108,-9.06674 14.1481,-12.78103 4.2609,-3.04695 9.25924,-4.99336 14.27327,-6.41963 -0.19159,-0.65908 -0.38262,-1.31833 -0.57031,-1.97853 -0.17057,0.0508 -0.34115,0.10156 -0.51172,0.15234 z" />
    <path
       id="path2107"
       style="color:#000000;display:inline;fill:#666666;fill-rule:evenodd;stroke:#f2f2f2;stroke-width:0.5;stroke-miterlimit:4;stroke-dasharray:none"
       d="m 159.72627,118.72364 c -10.64525,1.84027 -20.46596,6.61679 -30.02559,11.45133 -9.7754,4.97482 -19.55524,10.04053 -29.92754,13.68149 -3.553135,1.25674 -7.242921,2.3768 -10.929688,3.30468 0.16833,0.66496 0.336118,1.33005 0.507813,1.99415 11.477295,-2.84415 22.388785,-7.56962 32.918125,-12.87935 9.86982,-4.88774 19.53628,-10.36124 30.10307,-13.65947 2.69552,-0.83504 5.44641,-1.48885 8.22881,-1.95923 -0.1178,-0.67568 -0.2329,-1.35182 -0.35156,-2.02735 -0.17448,0.0312 -0.34896,0.0625 -0.52344,0.0938 z" />
    <path
       id="path2109"
       style="color:#000000;display:inline;fill:#666666;fill-rule:evenodd;stroke:#f2f2f2;stroke-width:0.5;stroke-miterlimit:4;stroke-dasharray:none"
       d="m 162.779,127.61622 c -9.5896,0.80867 -18.76214,3.96422 -27.82084,7.02622 -12.0515,4.16825 -24.11097,8.38151 -36.642375,10.86176 -3.105669,0.62461 -6.232004,1.14772 -9.37077,1.57687 0.0944,0.67942 0.186958,1.35909 0.277343,2.03906 12.937162,-1.71392 25.529572,-5.33718 37.844832,-9.56717 9.46745,-3.158 18.82438,-6.78559 28.61913,-8.8301 2.56985,-0.52108 5.16787,-0.90981 7.78409,-1.09883 -0.0535,-0.68488 -0.10781,-1.36971 -0.16016,-2.05468 -0.17708,0.0156 -0.35416,0.0312 -0.53125,0.0469 z" />
    <path
       id="path2111"
       style="color:#000000;display:inline;fill:#666666;fill-rule:evenodd;stroke:#f2f2f2;stroke-width:0.5;stroke-miterlimit:4;stroke-dasharray:none"
       d="m 161.89814,134.59669 c -6.64317,0.20834 -13.09789,1.96133 -19.55652,3.37102 -12.01184,2.80024 -24.07554,5.18039 -36.28422,6.92936 -5.67576,0.82391 -11.372879,1.53054 -17.086995,2.16446 0.07606,0.68216 0.151759,1.36437 0.22461,2.04688 16.364255,-1.77757 32.647645,-4.35408 48.701905,-7.99862 6.44852,-1.38201 12.80547,-3.09438 19.32546,-4.04437 2.47923,-0.3615 5.07169,-0.50041 7.61522,-0.35154 0.0388,-0.68499 0.0787,-1.36991 0.12109,-2.05469 -1.02012,-0.0401 -2.03936,-0.0823 -3.06055,-0.0625 z" />
    <path
       id="path2113"
       style="color:#000000;display:inline;fill:#666666;fill-rule:evenodd;stroke:#f2f2f2;stroke-width:0.5;stroke-miterlimit:4;stroke-dasharray:none"
       d="m 164.68721,137.72169 c -25.24351,3.11511 -50.48689,6.23123 -75.730476,9.3457 0.08304,0.68111 0.168903,1.36187 0.251953,2.04297 25.418733,-3.13583 50.837133,-6.27432 76.255863,-9.41015 -0.083,-0.68111 -0.1689,-1.36187 -0.25195,-2.04297 -0.17513,0.0215 -0.35026,0.043 -0.52539,0.0645 z" />
    <path
       id="path2115"
       style="color:#000000;display:inline;fill:#666666;fill-rule:evenodd;stroke:#f2f2f2;stroke-width:0.5;stroke-miterlimit:4;stroke-dasharray:none"
       d="m 164.88057,139.25294 c -25.30076,2.60114 -50.60171,5.20047 -75.902352,7.80274 0.06797,0.68246 0.137852,1.36473 0.208984,2.04687 25.476838,-2.6158 50.953218,-5.23611 76.429688,-7.85547 -0.068,-0.68246 -0.13785,-1.36473 -0.20898,-2.04687 -0.17578,0.0176 -0.35156,0.0351 -0.52734,0.0527 z" />
    <path
       id="path2117"
       style="color:#000000;display:inline;fill:#666666;fill-rule:evenodd;stroke:#f2f2f2;stroke-width:0.5;stroke-miterlimit:4;stroke-dasharray:none"
       d="m 165.30244,144.34083 c -25.41926,0.8916 -50.83861,1.7806 -76.257816,2.67383 0.02257,0.6856 0.04667,1.37115 0.07227,2.05664 25.594456,-0.89627 51.188856,-1.79395 76.783206,-2.69336 -0.0228,-0.68489 -0.0456,-1.36979 -0.0684,-2.05469 -0.17643,0.006 -0.35287,0.0117 -0.5293,0.0176 z" />
    <path
       id="path2119"
       style="color:#000000;display:inline;fill:#666666;fill-rule:evenodd;stroke:#f2f2f2;stroke-width:0.5;stroke-miterlimit:4;stroke-dasharray:none"
       d="m 165.20478,142.7295 c -25.3945,1.43341 -50.78922,2.86311 -76.183593,4.29883 0.04102,0.68478 0.07923,1.36973 0.117187,2.05469 25.570336,-1.44227 51.140786,-2.88279 76.710946,-4.32813 -0.041,-0.68478 -0.0792,-1.36973 -0.11719,-2.05468 -0.17578,0.01 -0.35156,0.0195 -0.52735,0.0293 z" />
    <path
       id="path2121"
       style="color:#000000;display:inline;fill:#666666;fill-rule:evenodd;stroke:#f2f2f2;stroke-width:0.5;stroke-miterlimit:4;stroke-dasharray:none"
       d="m 165.07588,141.1338 c -25.35807,1.96878 -50.71616,3.93735 -76.074225,5.90625 0.05367,0.68352 0.104544,1.36726 0.158203,2.05078 25.534492,-1.98259 51.069032,-3.96467 76.603522,-5.94726 -0.0529,-0.68363 -0.10723,-1.36716 -0.16016,-2.05078 -0.17578,0.0137 -0.35156,0.0273 -0.52734,0.041 z" />
    <path
       id="path4559"
       style="color:#000000;display:inline;fill:#666666;fill-rule:evenodd;stroke:#f2f2f2;stroke-width:0.5;stroke-miterlimit:4;stroke-dasharray:none"
       d="m 15.671577,131.80372 c -0.597165,-0.0158 -1.12167,0.28583 -1.605469,0.59961 0.355406,0.53152 0.712469,1.06192 1.070313,1.5918 1.638354,-0.36077 3.304329,0.18545 4.927193,0.41374 8.425248,1.72624 16.735984,3.95788 25.104232,5.93454 14.733844,3.53355 29.544201,6.90999 44.597481,8.77086 0.08307,-0.68102 0.165537,-1.36212 0.25,-2.04297 -16.595868,-2.05992 -32.88129,-5.94998 -49.121244,-9.88241 -7.12013,-1.69993 -14.200053,-3.59578 -21.38981,-4.97703 -1.265463,-0.21184 -2.544409,-0.44402 -3.832696,-0.40814 z" />
    <path
       id="path4561"
       style="color:#000000;display:inline;fill:#666666;fill-rule:evenodd;stroke:#f2f2f2;stroke-width:0.5;stroke-miterlimit:4;stroke-dasharray:none"
       d="m 75.894234,73.254825 c -0.292478,10.620582 2.407512,21.012191 5.197858,31.170015 2.827123,10.25856 5.856241,20.50563 6.950579,31.13084 0.439346,4.25953 0.552832,8.61701 0.267578,12.93359 0.68503,0.0401 1.36978,0.0848 2.054688,0.12695 0.737433,-10.5385 -1.021343,-21.06507 -3.597187,-31.25111 -2.739723,-11.02018 -6.466502,-21.89238 -8.12547,-33.12005 -0.544644,-3.791 -0.810181,-7.621595 -0.679687,-11.464844 -0.686186,-0.02061 -1.372393,-0.04046 -2.058594,-0.06055 -0.0033,0.178386 -0.0065,0.356771 -0.0098,0.535156 z" />
    <path
       id="path4563"
       style="color:#000000;display:inline;fill:#666666;fill-rule:evenodd;stroke:#f2f2f2;stroke-width:0.5;stroke-miterlimit:4;stroke-dasharray:none"
       d="m 55.411812,79.653263 c -0.311726,0.365651 -1.508778,0.500625 -1.16127,1.036437 7.419046,12.504438 14.200828,25.39046 19.722571,38.85935 3.499809,8.30465 6.357613,16.97701 11.331848,24.56344 1.110774,1.71063 2.320639,3.35329 3.567788,4.96662 0.543289,-0.41978 1.084083,-0.84279 1.625,-1.26562 -3.749705,-4.70417 -6.737009,-9.97507 -9.079805,-15.50748 -3.229975,-7.6094 -6.108055,-15.36844 -9.602403,-22.86304 C 67.095049,99.120736 61.650928,89.144547 55.868843,79.381779 c -0.152344,0.09049 -0.304688,0.180989 -0.457031,0.271484 z" />
    <path
       id="path4565"
       style="color:#000000;display:inline;fill:#666666;fill-rule:evenodd;stroke:#f2f2f2;stroke-width:0.5;stroke-miterlimit:4;stroke-dasharray:none"
       d="m 37.331734,92.061466 c -0.130579,0.447752 -0.955358,1.050521 -0.64048,1.399356 6.384164,3.913023 11.756301,9.289468 16.211793,15.272188 6.113507,8.15037 11.119289,17.11659 17.836208,24.81411 5.279494,6.17155 11.572904,11.46211 18.539744,15.63551 0.357062,-0.58511 0.712333,-1.17131 1.070313,-1.75586 C 83.666033,143.41966 77.610741,138.3701 72.490873,132.43235 65.827336,124.83004 60.851543,115.97009 54.827827,107.86034 50.227898,101.64722 44.711397,96.021166 38.114925,91.928747 37.69967,91.607082 37.559841,91.50962 37.331734,92.061466 Z" />
    <path
       id="path4567"
       style="color:#000000;display:inline;fill:#666666;fill-rule:evenodd;stroke:#f2f2f2;stroke-width:0.5;stroke-miterlimit:4;stroke-dasharray:none"
       d="m 25.450874,106.12009 c -0.0041,0.46754 -0.63173,1.27483 -0.234195,1.52421 5.826071,1.64032 11.59648,4.09888 16.285282,8.04538 4.537048,3.76054 8.464025,8.19203 12.969384,11.9897 10.396614,9.0002 22.564484,15.64108 34.932654,21.5052 0.292184,-0.62081 0.586859,-1.24045 0.878906,-1.86133 C 77.785173,141.39588 65.505021,134.69808 55.090419,125.49303 49.433694,120.63074 44.635744,114.69369 38.172142,110.831 c -3.895246,-2.37046 -8.20455,-3.96761 -12.57283,-5.22263 -0.04948,0.17057 -0.09896,0.34115 -0.148438,0.51172 z" />
    <path
       id="path4569"
       style="color:#000000;display:inline;fill:#666666;fill-rule:evenodd;stroke:#f2f2f2;stroke-width:0.5;stroke-miterlimit:4;stroke-dasharray:none"
       d="m 18.632515,119.15529 c 0.07575,0.47411 -0.59805,1.47176 0.03543,1.55542 10.702308,1.81576 20.539889,6.71821 30.12707,11.56429 10.463724,5.34377 20.98517,10.70596 32.183517,14.36672 2.84725,0.94996 5.735281,1.77205 8.644216,2.51357 0.171764,-0.66408 0.339425,-1.32921 0.507813,-1.99415 -11.734955,-2.90419 -22.824383,-7.82945 -33.583265,-13.29873 -10.448717,-5.22304 -20.778572,-11.00699 -32.144488,-14.01701 -1.872749,-0.49396 -3.76964,-0.88848 -5.678496,-1.21551 -0.0306,0.17513 -0.0612,0.35026 -0.0918,0.5254 z" />
    <path
       id="path4571"
       style="color:#000000;display:inline;fill:#666666;fill-rule:evenodd;stroke:#f2f2f2;stroke-width:0.5;stroke-miterlimit:4;stroke-dasharray:none"
       d="m 15.622749,128.10255 c 0.09154,0.45789 -0.359897,1.37637 0.08013,1.53859 9.033335,0.7155 17.692619,3.62532 26.226592,6.49761 11.696301,4.01092 23.382028,8.17493 35.490363,10.78892 4.07813,0.89951 8.194101,1.62656 12.331824,2.19246 0.09031,-0.67998 0.183024,-1.35963 0.277344,-2.03906 -11.968618,-1.58745 -23.625671,-4.83356 -35.034807,-8.68303 -9.763254,-3.22548 -19.379647,-6.98371 -29.416538,-9.29872 -3.264303,-0.73737 -6.57517,-1.28298 -9.913889,-1.52997 -0.01367,0.17773 -0.02734,0.35547 -0.04102,0.5332 z" />
    <path
       id="path4573"
       style="color:#000000;display:inline;fill:#666666;fill-rule:evenodd;stroke:#f2f2f2;stroke-width:0.5;stroke-miterlimit:4;stroke-dasharray:none"
       d="m 13.896187,136.76466 c 0.06069,0.46413 -0.447825,1.3549 -0.02072,1.5436 25.289587,3.6024 50.578794,7.20746 75.868373,10.80992 0.0962,-0.67906 0.192866,-1.35805 0.289062,-2.03711 -25.354286,-3.61179 -50.708213,-7.22611 -76.0625,-10.83789 -0.02474,0.17382 -0.04948,0.34765 -0.07422,0.52148 z" />
    <path
       id="path4575"
       style="color:#000000;display:inline;fill:#666666;fill-rule:evenodd;stroke:#f2f2f2;stroke-width:0.5;stroke-miterlimit:4;stroke-dasharray:none"
       d="m 13.696968,138.18263 c 0.09694,0.47053 -0.526573,1.50437 0.110268,1.55411 25.31942,3.12408 50.638627,6.2499 75.958091,9.37362 0.08304,-0.6811 0.168904,-1.36186 0.251953,-2.04297 -25.418729,-3.13583 -50.83713,-6.27432 -76.255859,-9.41015 -0.02148,0.17513 -0.04297,0.35026 -0.06445,0.52539 z" />
    <path
       id="path4577"
       style="color:#000000;display:inline;fill:#666666;fill-rule:evenodd;stroke:#f2f2f2;stroke-width:0.5;stroke-miterlimit:4;stroke-dasharray:none"
       d="m 13.511421,139.7256 c 0.106681,0.46895 -0.49338,1.51425 0.144091,1.55254 25.377089,2.60824 50.753915,5.21909 76.1313,7.82441 0.07119,-0.68213 0.140956,-1.36442 0.208984,-2.04687 -25.476472,-2.61936 -50.952853,-5.23967 -76.429688,-7.85547 -0.01823,0.17513 -0.03646,0.35026 -0.05469,0.52539 z" />
    <path
       id="path4579"
       style="color:#000000;display:inline;fill:#666666;fill-rule:evenodd;stroke:#f2f2f2;stroke-width:0.5;stroke-miterlimit:4;stroke-dasharray:none"
       d="m 13.124702,144.85255 c 0.139514,0.4595 -0.389616,1.54226 0.249015,1.53645 25.494449,0.89463 50.98888,1.7899 76.483407,2.6823 0.02557,-0.68549 0.04973,-1.37104 0.07227,-2.05664 -25.595644,-0.89877 -51.191352,-1.79589 -76.78711,-2.69141 -0.0059,0.17644 -0.01172,0.35287 -0.01758,0.5293 z" />
    <path
       id="path4581"
       style="color:#000000;display:inline;fill:#666666;fill-rule:evenodd;stroke:#f2f2f2;stroke-width:0.5;stroke-miterlimit:4;stroke-dasharray:none"
       d="m 13.212593,143.2295 c 0.129279,0.46311 -0.426581,1.53424 0.211588,1.54308 25.470425,1.43787 50.940934,2.87432 76.411459,4.31044 0.0379,-0.68496 0.07623,-1.3699 0.117187,-2.05469 -25.57016,-1.44533 -51.140601,-2.88585 -76.710937,-4.32812 -0.0098,0.17643 -0.01953,0.35286 -0.0293,0.52929 z" />
    <path
       id="path4583"
       style="color:#000000;display:inline;fill:#666666;fill-rule:evenodd;stroke:#f2f2f2;stroke-width:0.5;stroke-miterlimit:4;stroke-dasharray:none"
       d="m 13.32978,141.62013 c 0.118315,0.46542 -0.458354,1.52566 0.179956,1.5467 25.434149,1.97476 50.868323,3.94918 76.302466,5.924 0.05292,-0.68363 0.107233,-1.36715 0.160156,-2.05078 -25.53384,-1.98259 -51.067721,-3.96467 -76.601562,-5.94726 -0.01367,0.17578 -0.02734,0.35156 -0.04102,0.52734 z" />
    <path
       id="rect1175"
       style="color:#000000;display:inline;overflow:visible;fill:#aa4400;stroke:#552200;stroke-width:0.499999;stroke-linecap:round;stroke-linejoin:round;stroke-miterlimit:4;stroke-dasharray:none;stop-color:#000000"
       d="m 89.568801,142.28907 a 5.679758,5.679758 0 0 0 -5.461164,4.13256 H 7.6006787 v 3.0949 H 84.107637 a 5.679758,5.679758 0 0 0 5.461164,4.13205 5.679758,5.679758 0 0 0 5.434293,-4.1305 H 172.0511 v -3.098 H 95.003094 a 5.679758,5.679758 0 0 0 -5.434293,-4.13101 z" />
    <path
       id="path7072"
       style="display:inline;overflow:visible;fill:#ff0000;stroke:#ffffff;stroke-width:0.5;stroke-linecap:round;stroke-linejoin:round;stroke-miterlimit:4;stroke-dasharray:none;stop-color:#000000"
       d="m 90.136003,150.22681 c -1.178169,0.13226 -3.289551,-1.32329 -3.3585,-1.93746 -0.06895,-0.61417 1.667122,-2.50168 2.845288,-2.63395 1.178161,-0.13226 82.971539,-6.90217 83.040489,-6.288 0.069,0.61416 -81.349117,10.72715 -82.527277,10.85941 z"
       sodipodi:nodetypes="sssss"
       inkscape:transform-center-x="-39.817263"
       inkscape:transform-center-y="-3.220955" />
    <circle
       style="color:#000000;display:inline;overflow:visible;fill:#800000;fill-opacity:1;stroke:none;stroke-width:0.255711;stroke-linecap:round;stroke-linejoin:round;stroke-miterlimit:4;stroke-dasharray:none;stop-color:#000000"
       id="path10333"
       cx="89.82589"
       cy="147.96858"
       r="0.84502286" />
  </g>
  <g
     inkscape:groupmode="layer"
     id="layer10"
     inkscape:label="Hex"
     transform="translate(18.019034,62.354316)"
     sodipodi:insensitive="true" />
  <g
     inkscape:groupmode="layer"
     id="layer12"
     inkscape:label="SysRevving Book Cover FG"
     sodipodi:insensitive="true"
     transform="translate(8.6655663,68.142349)">
    <path
       id="rect828"
       style="display:inline;overflow:visible;fill:url(#linearGradient836);stroke-width:25.2733;stroke-linecap:square;enable-background:accumulate"
       d="M -8.6655663,-68.142349 V 262.43028 H 207.63489 V -68.142349 Z M 16.122469,35.259854 H 181.17034 c 5.34083,0 9.6408,4.299968 9.6408,9.640799 V 167.81949 c 0,5.34083 -4.29997,9.6408 -9.6408,9.6408 H 16.122469 c -5.340832,0 -9.640347,-4.29997 -9.640347,-9.6408 V 44.900653 c 0,-5.340831 4.299515,-9.640799 9.640347,-9.640799 z" />
    <rect
       style="color:#000000;clip-rule:nonzero;display:inline;overflow:visible;visibility:visible;isolation:auto;mix-blend-mode:normal;color-interpolation:sRGB;color-interpolation-filters:linearRGB;solid-color:#000000;solid-opacity:1;fill:#ffffff;fill-opacity:1;fill-rule:nonzero;stroke:none;stroke-width:2.95759;stroke-linecap:square;stroke-linejoin:miter;stroke-miterlimit:4;stroke-dasharray:none;stroke-dashoffset:0;stroke-opacity:1;color-rendering:auto;image-rendering:auto;shape-rendering:auto;text-rendering:auto;enable-background:accumulate"
       id="rect838"
       width="110.06744"
       height="15.248216"
       x="97.567398"
       y="-56.661282" />
    <text
       xml:space="preserve"
       style="font-style:normal;font-variant:normal;font-weight:normal;font-stretch:normal;font-size:9.5227px;line-height:7.142px;font-family:'Fira Code iScript';-inkscape-font-specification:'Fira Code iScript';letter-spacing:0px;word-spacing:0px;display:inline;fill:#000000;fill-opacity:1;stroke:none;stroke-width:0.510141px;stroke-linecap:butt;stroke-linejoin:miter;stroke-opacity:1"
       x="101.39095"
       y="-46.808868"
       id="text842"><tspan
         sodipodi:role="line"
         id="tspan840"
         x="101.39095"
         y="-46.808868"
         style="font-style:normal;font-variant:normal;font-weight:bold;font-stretch:normal;font-family:Vollkorn;-inkscape-font-specification:'Vollkorn Bold';stroke-width:0.510141px">https://sysrevving.com</tspan></text>
    <text
       xml:space="preserve"
       style="font-style:normal;font-variant:normal;font-weight:normal;font-stretch:normal;font-size:11.5633px;line-height:7.142px;font-family:'Fira Code iScript';-inkscape-font-specification:'Fira Code iScript';letter-spacing:0px;word-spacing:0px;display:inline;fill:#000000;fill-opacity:1;stroke:none;stroke-width:0.510141px;stroke-linecap:butt;stroke-linejoin:miter;stroke-opacity:1"
       x="8.2924557"
       y="19.832067"
       id="text850"><tspan
         sodipodi:role="line"
         id="tspan848"
         x="8.2924557"
         y="19.832067"
         style="font-style:normal;font-variant:normal;font-weight:normal;font-stretch:normal;font-family:Vollkorn;-inkscape-font-specification:Vollkorn;fill:#ffffff;fill-opacity:1;stroke-width:0.510141px">A Guide to Open Systematic Reviews</tspan></text>
    <text
       id="text854"
       y="200.54022"
       x="6.9189882"
       style="font-style:normal;font-variant:normal;font-weight:normal;font-stretch:normal;font-size:11.5633px;line-height:7.142px;font-family:'Fira Code iScript';-inkscape-font-specification:'Fira Code iScript';letter-spacing:0px;word-spacing:0px;display:inline;fill:#000000;fill-opacity:1;stroke:none;stroke-width:0.510141px;stroke-linecap:butt;stroke-linejoin:miter;stroke-opacity:1"
       xml:space="preserve"><tspan
         style="font-style:normal;font-variant:normal;font-weight:normal;font-stretch:normal;font-family:Vollkorn;-inkscape-font-specification:Vollkorn;fill:#ffffff;fill-opacity:1;stroke-width:0.510141px"
         y="200.54022"
         x="6.9189882"
         id="tspan852"
         sodipodi:role="line">Gjalt-Jorn Peters</tspan></text>
    <g
       transform="matrix(0.51014247,0,0,0.51014247,6.638713,224.64025)"
       id="g2630"
       style="display:inline">
      <path
         inkscape:connector-curvature="0"
         id="path3817_5_"
         nodetypes="ccccccc"
         d="M 3.4083297,0.45268464 116.76243,0.65404185 c 1.58383,0 2.99881,-0.23483394 2.99881,3.16052515 l -0.13878,37.329077 H 0.54733418 V 3.675801 c 0,-1.6743929 0.16206577,-3.22311636 2.86099552,-3.22311636 z"
         style="fill:#aab2ab" />
      <path
         inkscape:connector-curvature="0"
         d="M 117.7533,-1.417352e-6 H 2.2476335 C 1.0083193,-1.417352e-6 -2.0408688e-5,1.0082254 -2.0408688e-5,2.2469141 V 41.492978 c 0,0.279957 0.227098788688,0.50702 0.507563608688,0.50702 H 119.49241 c 0.28048,0 0.50757,-0.227073 0.50757,-0.50702 V 2.2469141 c 0,-1.2386887 -1.00834,-2.246915517352 -2.24668,-2.246915517352 z M 2.2476335,1.0150221 H 117.75331 c 0.67933,0 1.23155,0.5526294 1.23155,1.2319019 0,0 0,15.796336 0,27.220625 H 36.428267 c -3.025983,5.471006 -8.856684,9.185621 -15.547234,9.185621 -6.692497,0 -12.5212501,-3.711217 -15.5452952,-9.185621 H 1.0151167 c 0,-11.424289 0,-27.220625 0,-27.220625 -9.9e-6,-0.6792725 0.5531682,-1.2319019 1.2325168,-1.2319019 z"
         id="path120" />
      <g
         id="g5908_5_"
         transform="matrix(0.8674921,0,0,0.8673951,-387.30972,67.870882)">
        <path
           inkscape:connector-curvature="0"
           id="path5906_5_"
           cx="296.35416"
           ry="22.939548"
           cy="264.3577"
           type="arc"
           rx="22.939548"
           d="m 486.26599,-55.7066 c 0.006,8.68079 -7.02789,15.7215 -15.70813,15.72708 -8.68018,0.0056 -15.7215,-7.02786 -15.72705,-15.7081 0,-0.0067 0,-0.01227 0,-0.01898 -0.006,-8.68079 7.02783,-15.7215 15.70807,-15.72711 8.68134,-0.005 15.7226,7.02783 15.72711,15.70807 0,0.0062 0,0.01287 0,0.01904 z"
           style="fill:#ffffff" />
        <g
           id="g5706_5_"
           transform="translate(-289.6157,99.0653)">
          <path
             inkscape:connector-curvature="0"
             id="path5708_5_"
             d="m 772.94165,-167.5741 c 3.48486,3.48541 5.22778,7.75336 5.22778,12.80219 0,5.04938 -1.71277,9.27203 -5.13831,12.66794 -3.63586,3.57602 -7.93176,5.36374 -12.89001,5.36374 -4.89783,0 -9.11987,-1.77264 -12.66394,-5.31955 -3.54639,-3.54526 -5.31848,-7.78244 -5.31848,-12.71213 0,-4.92859 1.77209,-9.19598 5.31848,-12.80219 3.45459,-3.48651 7.67664,-5.22949 12.66394,-5.22949 5.04883,0 9.31458,1.74298 12.80054,5.22949 z m -23.11853,2.34485 c -2.94678,2.97638 -4.42017,6.46289 -4.42017,10.46179 0,3.9989 1.45886,7.45581 4.37427,10.37122 2.9176,2.9165 6.38904,4.37476 10.4176,4.37476 4.02856,0 7.53015,-1.47281 10.50708,-4.41895 2.82593,-2.73645 4.23889,-6.17767 4.23889,-10.32703 0,-4.11749 -1.4364,-7.61292 -4.30823,-10.48419 -2.87061,-2.87061 -6.34985,-4.30652 -10.43774,-4.30652 -4.08789,0 -7.54699,1.44318 -10.3717,4.32892 z m 7.75391,8.70319 c -0.44971,-0.98169 -1.12317,-1.47284 -2.02271,-1.47284 -1.58862,0 -2.38293,1.07007 -2.38293,3.20911 0,2.13953 0.79431,3.2085 2.38293,3.2085 1.04944,0 1.79895,-0.52075 2.24866,-1.56458 l 2.20276,1.17303 c -1.05042,1.86548 -2.62561,2.79901 -4.72546,2.79901 -1.62,0 -2.91772,-0.4967 -3.89209,-1.48956 -0.97546,-0.99341 -1.46326,-2.36334 -1.46326,-4.10852 0,-1.71503 0.50342,-3.07654 1.50806,-4.08502 1.00452,-1.00854 2.25757,-1.51257 3.75781,-1.51257 2.22058,0 3.8092,0.87488 4.77136,2.62286 z m 10.36389,0 c -0.45081,-0.98169 -1.11206,-1.47284 -1.98242,-1.47284 -1.62097,0 -2.43213,1.07007 -2.43213,3.20911 0,2.13953 0.81116,3.2085 2.43213,3.2085 1.05164,0 1.78772,-0.52075 2.20728,-1.56458 l 2.25195,1.17303 c -1.04822,1.86548 -2.62109,2.79901 -4.71765,2.79901 -1.61768,0 -2.91199,-0.4967 -3.88647,-1.48956 -0.97217,-0.99341 -1.45996,-2.36334 -1.45996,-4.10852 0,-1.71503 0.49451,-3.07654 1.48352,-4.08502 0.98779,-1.00854 2.24524,-1.51257 3.77344,-1.51257 2.21619,0 3.80371,0.87488 4.76135,2.62286 z" />
        </g>
      </g>
      <g
         transform="matrix(0.9937808,0,0,0.9936696,-437.12334,-74.436914)"
         id="g126">
        <circle
           cx="491.94629"
           cy="90.231934"
           r="10.80615"
           id="circle128"
           style="fill:#ffffff" />
        <g
           id="g130">
          <path
             inkscape:connector-curvature="0"
             d="m 495.07373,87.10498 c 0,-0.4165 -0.33789,-0.75391 -0.75391,-0.75391 h -4.77246 c -0.41602,0 -0.75391,0.3374 -0.75391,0.75391 v 4.77295 h 1.33105 v 5.65186 h 3.61719 v -5.65186 h 1.33203 v -4.77295 z"
             id="path132" />
          <circle
             cx="491.93359"
             cy="84.090332"
             r="1.63232"
             id="circle134" />
        </g>
        <path
           inkscape:connector-curvature="0"
           d="m 491.91846,78.3252 c -3.23145,0 -5.96777,1.12793 -8.20703,3.38379 -2.29785,2.3335 -3.44629,5.0957 -3.44629,8.28467 0,3.18897 1.14844,5.93164 3.44629,8.22705 2.29785,2.29395 5.03418,3.44189 8.20703,3.44189 3.21289,0 5.99805,-1.15674 8.35449,-3.47168 2.21973,-2.19727 3.3291,-4.92969 3.3291,-8.19727 0,-3.26758 -1.12891,-6.02881 -3.3877,-8.28467 -2.25879,-2.25586 -5.02343,-3.38378 -8.29589,-3.38378 z m 0.0303,2.0996 c 2.64844,0 4.89648,0.93408 6.74609,2.80127 1.87012,1.84717 2.80469,4.10352 2.80469,6.76758 0,2.68359 -0.91504,4.91064 -2.74609,6.68066 -1.92773,1.90576 -4.19629,2.8584 -6.80469,2.8584 -2.61035,0 -4.85938,-0.94287 -6.74805,-2.82959 -1.88867,-1.88623 -2.83301,-4.12256 -2.83301,-6.70947 0,-2.58691 0.9541,-4.84229 2.8623,-6.76758 1.83107,-1.86718 4.07032,-2.80127 6.71876,-2.80127 z"
           id="path136"
           style="clip-rule:evenodd;fill-rule:evenodd" />
      </g>
      <g
         transform="matrix(0.9937808,0,0,0.9936696,-437.12334,-74.436914)"
         enable-background="new    "
         id="g138">
        <path
           inkscape:connector-curvature="0"
           d="m 488.56299,107.86719 c 0.31738,0 0.60742,0.0283 0.86914,0.084 0.26172,0.0557 0.48633,0.14746 0.67383,0.27539 0.18652,0.12695 0.33105,0.29688 0.43457,0.50781 0.10254,0.21191 0.1543,0.47266 0.1543,0.78418 0,0.33594 -0.0762,0.61523 -0.22949,0.83887 -0.15234,0.22461 -0.37891,0.40723 -0.67773,0.55078 0.41211,0.11816 0.71973,0.3252 0.92285,0.62109 0.20312,0.29589 0.30469,0.65234 0.30469,1.06934 0,0.33594 -0.0654,0.62695 -0.19629,0.87305 -0.13086,0.24512 -0.30762,0.44629 -0.5293,0.60156 -0.2207,0.15625 -0.47363,0.27148 -0.75684,0.3457 -0.28418,0.0752 -0.5752,0.1123 -0.875,0.1123 h -3.23633 v -6.66406 h 3.1416 z m -0.1875,2.69531 c 0.26172,0 0.47656,-0.0625 0.64453,-0.18652 0.16895,-0.12402 0.25293,-0.3252 0.25293,-0.60449 0,-0.15527 -0.0283,-0.2832 -0.084,-0.38184 -0.0566,-0.0996 -0.13086,-0.17676 -0.22461,-0.2334 -0.0938,-0.0557 -0.20117,-0.0947 -0.32227,-0.11621 -0.12207,-0.0215 -0.24805,-0.0322 -0.37891,-0.0322 h -1.37305 v 1.55469 z m 0.0859,2.82812 c 0.14355,0 0.28027,-0.0137 0.41113,-0.042 0.13086,-0.0283 0.24609,-0.0752 0.34668,-0.13965 0.0996,-0.0654 0.17871,-0.1543 0.23828,-0.2666 0.0586,-0.11133 0.0889,-0.25488 0.0889,-0.42871 0,-0.3418 -0.0967,-0.58594 -0.29004,-0.73242 -0.19336,-0.14551 -0.44922,-0.21875 -0.7666,-0.21875 h -1.59961 v 1.82812 z"
           id="path140"
           style="fill:#ffffff" />
        <path
           inkscape:connector-curvature="0"
           d="m 491.27393,107.86719 h 1.64258 l 1.56055,2.63184 1.55176,-2.63184 h 1.63379 l -2.47461,4.10645 v 2.55762 h -1.46875 v -2.59473 z"
           id="path142"
           style="fill:#ffffff" />
      </g>
      <g
         transform="matrix(0.9937808,0,0,0.9936696,-437.12334,-74.436914)"
         enable-background="new    "
         id="g144">
        <path
           inkscape:connector-curvature="0"
           d="m 538.91553,112.88379 c 0.0811,0.15527 0.1875,0.28125 0.32129,0.37793 0.13379,0.0967 0.29004,0.16797 0.4707,0.21484 0.17969,0.0469 0.36523,0.0703 0.55859,0.0703 0.12988,0 0.26953,-0.0107 0.41895,-0.0332 0.14844,-0.0215 0.28809,-0.0635 0.41895,-0.12598 0.12988,-0.0615 0.23828,-0.14746 0.32617,-0.25684 0.0859,-0.1084 0.12988,-0.24707 0.12988,-0.41504 0,-0.18066 -0.0576,-0.32617 -0.17285,-0.43848 -0.11426,-0.1123 -0.26562,-0.20508 -0.45117,-0.28027 -0.18652,-0.0742 -0.39844,-0.13965 -0.63379,-0.19629 -0.23633,-0.0557 -0.47559,-0.11816 -0.71777,-0.18652 -0.24902,-0.0625 -0.49121,-0.13867 -0.72754,-0.22852 -0.23535,-0.0898 -0.44727,-0.20703 -0.63379,-0.35059 -0.18555,-0.14258 -0.33691,-0.32129 -0.45117,-0.53613 -0.11523,-0.21484 -0.17285,-0.47461 -0.17285,-0.7793 0,-0.34277 0.0732,-0.63965 0.21875,-0.8916 0.14648,-0.25195 0.33789,-0.46191 0.57324,-0.63086 0.23633,-0.16797 0.50391,-0.29199 0.80273,-0.37305 0.29785,-0.0811 0.59668,-0.12109 0.89453,-0.12109 0.34863,0 0.68262,0.0391 1.00293,0.11719 0.31934,0.0772 0.60449,0.2041 0.85254,0.37793 0.24902,0.1748 0.44629,0.39746 0.59277,0.66797 0.14551,0.27148 0.21875,0.59961 0.21875,0.98535 h -1.42188 c -0.0127,-0.19922 -0.0537,-0.36426 -0.125,-0.49414 -0.0713,-0.13086 -0.16602,-0.2334 -0.28418,-0.30859 -0.11719,-0.0742 -0.25195,-0.12793 -0.40332,-0.1582 -0.15137,-0.0312 -0.31738,-0.0469 -0.49707,-0.0469 -0.11719,0 -0.23535,0.0127 -0.35254,0.0371 -0.11816,0.0254 -0.22461,0.0684 -0.32031,0.13086 -0.0967,0.0625 -0.1748,0.13965 -0.2373,0.2334 -0.0615,0.0938 -0.0928,0.21191 -0.0928,0.35449 0,0.13086 0.0244,0.2373 0.0742,0.31738 0.0498,0.0811 0.14746,0.15625 0.29395,0.22461 0.14649,0.0684 0.34766,0.13672 0.60547,0.20508 0.25781,0.0684 0.5957,0.15625 1.01172,0.26172 0.12402,0.0244 0.29688,0.0703 0.5166,0.13574 0.2207,0.0654 0.44043,0.16895 0.65723,0.3125 0.21777,0.14355 0.40527,0.33496 0.56445,0.57422 0.1582,0.23926 0.2373,0.5459 0.2373,0.91992 0,0.30469 -0.0596,0.58789 -0.17773,0.84961 -0.11816,0.26172 -0.29395,0.4873 -0.52734,0.67676 -0.2334,0.19043 -0.52246,0.33789 -0.86816,0.44336 -0.34473,0.10645 -0.74414,0.15918 -1.19922,0.15918 -0.36719,0 -0.72266,-0.0459 -1.06836,-0.13574 -0.3457,-0.0908 -0.65039,-0.23242 -0.91406,-0.42578 -0.26465,-0.19336 -0.47461,-0.44043 -0.63086,-0.73926 -0.15527,-0.29883 -0.23047,-0.65332 -0.22363,-1.06445 h 1.42188 c -3e-5,0.22364 0.04,0.41407 0.12107,0.56934 z"
           id="path146"
           style="fill:#ffffff" />
        <path
           inkscape:connector-curvature="0"
           d="m 547.17236,107.86719 2.49219,6.66406 h -1.52148 l -0.50391,-1.48438 h -2.49219 l -0.52344,1.48438 h -1.47461 l 2.52051,-6.66406 z m 0.084,4.08593 -0.83984,-2.44336 h -0.0195 l -0.86719,2.44336 z"
           id="path148"
           style="fill:#ffffff" />
      </g>
      <g
         transform="matrix(0.9937808,0,0,0.9936696,-437.12334,-74.436914)"
         enable-background="new    "
         id="g150">
        <path
           inkscape:connector-curvature="0"
           d="m 512.83057,107.86719 2.78418,4.4707 h 0.0156 v -4.4707 h 1.375 v 6.66406 h -1.46582 l -2.77344,-4.46191 h -0.0186 v 4.46191 h -1.375 v -6.66406 z"
           id="path152"
           style="fill:#ffffff" />
        <path
           inkscape:connector-curvature="0"
           d="m 522.56885,109.64258 c -0.0869,-0.14062 -0.19629,-0.26367 -0.32715,-0.36914 -0.13086,-0.10547 -0.27832,-0.18848 -0.44336,-0.24707 -0.16504,-0.0596 -0.33789,-0.0889 -0.51758,-0.0889 -0.33008,0 -0.61035,0.0635 -0.84082,0.19141 -0.23047,0.12695 -0.41699,0.29785 -0.55957,0.5127 -0.14355,0.21484 -0.24805,0.45898 -0.31348,0.73242 -0.0654,0.27344 -0.0977,0.55664 -0.0977,0.84863 0,0.28027 0.0322,0.55273 0.0977,0.81641 0.0654,0.26465 0.16992,0.50293 0.31348,0.71387 0.14258,0.21191 0.3291,0.38086 0.55957,0.50879 0.23047,0.12793 0.51074,0.19141 0.84082,0.19141 0.44727,0 0.79785,-0.13672 1.0498,-0.41113 0.25195,-0.27344 0.40625,-0.63477 0.46191,-1.08301 h 1.41895 c -0.0371,0.41699 -0.13379,0.79395 -0.28906,1.12988 -0.15527,0.33691 -0.36133,0.62305 -0.61621,0.86035 -0.25488,0.2373 -0.55371,0.41797 -0.89648,0.54297 -0.3418,0.125 -0.71875,0.1875 -1.12891,0.1875 -0.51074,0 -0.96973,-0.0889 -1.37793,-0.2666 -0.40723,-0.17676 -0.75195,-0.42188 -1.03223,-0.73242 -0.28027,-0.31152 -0.49609,-0.67773 -0.64551,-1.09766 -0.14941,-0.4209 -0.22461,-0.87305 -0.22461,-1.35938 0,-0.49805 0.0752,-0.95996 0.22461,-1.38672 0.14941,-0.42676 0.36523,-0.79883 0.64551,-1.11621 0.28028,-0.31738 0.625,-0.56641 1.03223,-0.74707 0.4082,-0.18066 0.86719,-0.27051 1.37793,-0.27051 0.36719,0 0.71387,0.0527 1.04004,0.15918 0.32715,0.10547 0.62012,0.25977 0.87793,0.46289 0.25879,0.20215 0.47168,0.45312 0.63965,0.75195 0.16797,0.29883 0.27344,0.6416 0.31738,1.02734 h -1.41895 c -0.0254,-0.16797 -0.0811,-0.32226 -0.16796,-0.46191 z"
           id="path154"
           style="fill:#ffffff" />
      </g>
      <g
         id="g6332_1_"
         transform="matrix(0.621108,0,0,0.6210385,-285.77182,240.48957)">
        <path
           inkscape:connector-curvature="0"
           id="path6334_1_"
           cx="475.97119"
           ry="29.209877"
           cy="252.08646"
           type="arc"
           rx="29.209877"
           d="m 644.57642,-363.11569 c 0.008,9.4118 -7.61731,17.04779 -17.02979,17.05481 -9.4126,0.005 -17.047,-7.61725 -17.05493,-17.03137 0,-0.007 0,-0.0164 0,-0.0234 -0.006,-9.4118 7.6189,-17.04779 17.02991,-17.05481 9.4126,-0.007 17.047,7.61804 17.05481,17.02905 0,0.009 0,0.0164 0,0.0258 z"
           style="fill:#ffffff" />
        <g
           id="g6336_1_"
           transform="translate(-23.9521,-89.72962)">
          <path
             inkscape:connector-curvature="0"
             id="path6338_1_"
             d="m 651.36426,-292.05655 c -5.17188,0 -9.55005,1.80548 -13.13135,5.41333 -3.67651,3.73444 -5.51562,8.15399 -5.51562,13.25714 0,5.10315 1.83911,9.48993 5.51562,13.1626 3.67505,3.67194 8.05322,5.50787 13.13135,5.50787 5.14075,0 9.59546,-1.85236 13.36572,-5.55396 3.55164,-3.51721 5.32825,-7.88916 5.32825,-13.11652 0,-5.22742 -1.80627,-9.64697 -5.422,-13.25714 -3.61401,-3.60784 -8.03748,-5.41332 -13.27197,-5.41332 z m 0.0469,3.36096 c 4.23755,0 7.83447,1.49298 10.79541,4.48132 2.99072,2.95544 4.48596,6.56329 4.48596,10.82819 0,4.29376 -1.46399,7.85632 -4.3938,10.68994 -3.08276,3.04846 -6.71411,4.57269 -10.88757,4.57269 -4.17505,0 -7.77344,-1.5094 -10.79541,-4.5274 -3.02185,-3.01874 -4.53284,-6.59613 -4.53284,-10.73523 0,-4.1391 1.52502,-7.74847 4.57971,-10.82819 2.92823,-2.98834 6.51099,-4.48132 10.74854,-4.48132 z" />
          <path
             inkscape:connector-curvature="0"
             id="path6340_1_"
             d="m 643.08923,-276.02048 c 0.74377,-4.69849 4.05005,-7.20941 8.19543,-7.20941 5.95935,0 9.59216,4.32501 9.59216,10.09222 0,5.62817 -3.8656,9.99854 -9.68604,9.99854 -4.00464,0 -7.59058,-2.46332 -8.24219,-7.30084 h 4.70312 c 0.14062,2.51099 1.77039,3.39532 4.09851,3.39532 2.6532,0 4.37659,-2.46484 4.37659,-6.23206 0,-3.95471 -1.48901,-6.04614 -4.28442,-6.04614 -2.04846,0 -3.81726,0.74451 -4.19067,3.30237 l 1.36719,-0.009 -3.70154,3.70319 -3.70166,-3.70319 z" />
        </g>
      </g>
      <g
         transform="translate(4.972327e-4,0.00962355)"
         id="g2366">
        <path
           inkscape:connector-curvature="0"
           id="path6372_1_"
           cx="475.97119"
           ry="29.209877"
           cy="252.08646"
           type="arc"
           rx="29.209877"
           d="m 87.801399,14.981221 c 0.0048,5.500587 -4.451603,9.961917 -9.953251,9.966304 -5.500714,0.0034 -9.962985,-4.45211 -9.966848,-9.951763 0,-0.0058 0,-0.01019 0,-0.01454 -0.0039,-5.5010765 4.452572,-9.9624055 9.953251,-9.9667814 5.50068,-0.00341 9.96295,4.4521099 9.966848,9.9517284 0,0.0049 0,0.01019 0,0.01505 z"
           style="fill:#ffffff" />
        <path
           inkscape:connector-curvature="0"
           id="path45"
           d="m 86.070369,6.7455646 c -2.24512,-2.242292 -4.99278,-3.362732 -8.24368,-3.362732 -3.21268,0 -5.93132,1.12044 -8.15662,3.362732 -2.28405,2.319442 -3.42502,5.0635624 -3.42502,8.2337704 0,3.169502 1.14097,5.89522 3.42502,8.175023 2.28334,2.28122 5.00198,3.421479 8.15662,3.421479 3.19286,0 5.96033,-1.150166 8.30171,-3.449789 2.2062,-2.184252 3.30965,-4.900058 3.30965,-8.146713 0,-3.247361 -1.12256,-5.9921884 -3.36768,-8.2337704 z m -1.45169,14.8728804 c -1.916,1.894056 -4.17032,2.840378 -6.76297,2.840378 -2.59336,0 -4.82858,-0.93712 -6.70565,-2.812068 -1.87707,-1.874948 -2.8156,-4.097421 -2.8156,-6.667423 0,-1.087172 0.17164,-2.114891 0.51103,-3.083862 l 3.07288,1.360027 h -0.22154 v 1.378074 h 1.08753 c 0,0.194644 -0.01946,0.388581 -0.01946,0.582514 v 0.33054 h -1.06807 v 1.378074 h 1.262 c 0.17482,1.029132 0.56305,1.863623 1.08717,2.523993 1.08717,1.436821 2.83436,2.213272 4.73692,2.213272 1.24288,0 2.36828,-0.368761 3.02865,-0.738229 l -0.46644,-2.154525 c -0.40769,0.213752 -1.31933,0.504658 -2.21257,0.504658 -0.97109,0 -1.88308,-0.290902 -2.50452,-0.990204 -0.29126,-0.329833 -0.50466,-0.776451 -0.6402,-1.358965 h 4.22057 l 5.99714,2.654584 c -0.41547,0.736114 -0.94277,1.416303 -1.58687,2.039162 z m -7.54225,-6.071813 -0.02548,-0.01946 0.04388,0.01946 z m 3.61045,-0.913054 h 0.17342 v -1.378074 h -3.287 l -1.33525,-0.591008 c 0.11501,-0.258345 0.25091,-0.489441 0.40945,-0.670281 0.60198,-0.738937 1.45594,-1.048951 2.3881,-1.048951 0.85431,0 1.64987,0.251974 2.15453,0.46573 l 0.54358,-2.2132724 c -0.6993,-0.310015 -1.72773,-0.581808 -2.91187,-0.581808 -1.82469,0 -3.37794,0.737523 -4.48458,1.9797014 -0.2456,0.283824 -0.45865,0.602333 -0.65188,0.939244 l -3.8136,-1.6877374 c 0.36947,-0.554204 0.80406,-1.086465 1.3073,-1.593953 1.81974,-1.855836 4.04434,-2.783755 6.67662,-2.783755 2.63158,0 4.8668,0.927919 6.70565,2.783755 1.85725,1.8360194 2.78588,4.0776014 2.78588,6.7261704 0,0.872709 -0.0991,1.695876 -0.29445,2.471617 z" />
      </g>
    </g>
    <text
       xml:space="preserve"
       style="font-size:26.0501px;line-height:29.1761px;font-family:'Faster One';-inkscape-font-specification:'Faster One';letter-spacing:0px;word-spacing:0px;display:inline;fill:#ffffff;stroke:#000000;stroke-width:0.325626px;stroke-linecap:butt;stroke-linejoin:miter;stroke-opacity:1"
       x="100.15202"
       y="-4.790247"
       id="text1924-0"><tspan
         sodipodi:role="line"
         id="tspan1922-4"
         style="text-align:center;text-anchor:middle;fill:#ffffff;stroke:none;stroke-width:0.325626px"
         x="100.15202"
         y="-4.790247">SysRevving</tspan></text>
  </g>
</svg>
